<?xml version="1.0" encoding="UTF-8"?>
<svg id="Layer_1" data-name="Layer 1" xmlns="http://www.w3.org/2000/svg" viewBox="0 0 40.48 52.36">
  <defs>
    <style>
      .cls-1 {
        fill: #7c7b7b;
      }
    </style>
  </defs>
  <path class="cls-1" d="M1.91,52.36l-.93-.87c2.98-3.19,9.91-12.02,9.8-25.09C10.67,12.53,2.5,3.38,0,.91l.9-.91c2.59,2.56,11.04,12.03,11.16,26.38.11,13.53-7.06,22.67-10.15,25.98Z"/>
  <path class="cls-1" d="M38.57,52.36c-3.09-3.3-10.26-12.44-10.15-25.98.12-14.35,8.57-23.82,11.16-26.38l.9.91c-2.5,2.47-10.67,11.63-10.78,25.49-.11,13.07,6.82,21.9,9.8,25.09l-.93.87Z"/>
</svg>