<?xml version="1.0" encoding="UTF-8"?>
<svg id="Layer_1" data-name="Layer 1" xmlns="http://www.w3.org/2000/svg" viewBox="0 0 53.85 52.97">
  <defs>
    <style>
      .cls-1 {
        fill: #7c7b7b;
      }
    </style>
  </defs>
  <path class="cls-1" d="M53.85.36l-.71-.36-24.2,47.73c.25.1.48.23.71.37L53.85.36Z"/>
  <path class="cls-1" d="M.71,0l-.71.36,24.21,47.74c.23-.14.46-.26.71-.37L.71,0Z"/>
  <path class="cls-1" d="M53.22,26.47l-22.82,22.19c.2.18.39.36.56.57l22.82-22.19-.56-.57Z"/>
  <path class="cls-1" d="M23.45,48.65L.63,26.47l-.56.57,22.82,22.19c.17-.2.36-.39.56-.57Z"/>
  <rect class="cls-1" x="26.52" y=".19" width=".8" height="49.34"/>
  <path class="cls-1" d="M26.92,52.97c-1.06,0-1.92-.86-1.92-1.92s.86-1.92,1.92-1.92,1.92.86,1.92,1.92-.86,1.92-1.92,1.92ZM26.92,49.93c-.62,0-1.12.5-1.12,1.12s.5,1.12,1.12,1.12,1.12-.5,1.12-1.12-.5-1.12-1.12-1.12Z"/>
</svg>