<?xml version="1.0" encoding="UTF-8"?>
<svg id="Layer_1" data-name="Layer 1" xmlns="http://www.w3.org/2000/svg" viewBox="0 0 52.28 51.51">
  <defs>
    <style>
      .cls-1 {
        fill: #7c7b7b;
      }
    </style>
  </defs>
  <circle class="cls-1" cx="45.68" cy=".22" r=".16"/>
  <circle class="cls-1" cx="8.49" cy=".21" r=".21"/>
  <circle class="cls-1" cx="12.19" cy=".22" r=".16"/>
  <circle class="cls-1" cx="23.35" cy=".22" r=".16"/>
  <circle class="cls-1" cx="27.08" cy=".22" r=".16"/>
  <circle class="cls-1" cx="30.82" cy=".21" r=".21"/>
  <circle class="cls-1" cx="41.98" cy=".21" r=".21"/>
  <circle class="cls-1" cx="19.65" cy=".21" r=".21"/>
  <circle class="cls-1" cx="38.25" cy=".22" r=".16"/>
  <circle class="cls-1" cx="4.75" cy=".22" r=".16"/>
  <circle class="cls-1" cx="15.92" cy=".22" r=".16"/>
  <circle class="cls-1" cx="49.41" cy=".22" r=".16"/>
  <circle class="cls-1" cx="34.52" cy=".22" r=".16"/>
  <circle class="cls-1" cx="1.04" cy=".17" r=".16"/>
  <circle class="cls-1" cx="40.11" cy="2.08" r=".24"/>
  <circle class="cls-1" cx="36.39" cy="2.08" r=".24"/>
  <circle class="cls-1" cx="28.95" cy="2.08" r=".24"/>
  <circle class="cls-1" cx="25.23" cy="2.08" r=".24"/>
  <circle class="cls-1" cx="47.56" cy="2.08" r=".24"/>
  <circle class="cls-1" cx="17.78" cy="2.08" r=".24"/>
  <circle class="cls-1" cx="14.06" cy="2.08" r=".24"/>
  <circle class="cls-1" cx="51.27" cy="2.08" r=".24"/>
  <circle class="cls-1" cx="6.62" cy="2.08" r=".24"/>
  <circle class="cls-1" cx="2.9" cy="2.08" r=".24"/>
  <circle class="cls-1" cx="10.33" cy="2.08" r=".24"/>
  <circle class="cls-1" cx="43.83" cy="2.08" r=".24"/>
  <circle class="cls-1" cx="32.66" cy="2.08" r=".24"/>
  <circle class="cls-1" cx="21.5" cy="2.08" r=".24"/>
  <circle class="cls-1" cx="41.97" cy="3.94" r=".32"/>
  <circle class="cls-1" cx="30.8" cy="3.94" r=".32"/>
  <circle class="cls-1" cx="19.64" cy="3.94" r=".32"/>
  <circle class="cls-1" cx="8.47" cy="3.94" r=".32"/>
  <circle class="cls-1" cx="34.52" cy="3.94" r=".32"/>
  <circle class="cls-1" cx="45.68" cy="3.94" r=".32"/>
  <circle class="cls-1" cx="1.03" cy="3.89" r=".32"/>
  <circle class="cls-1" cx="23.36" cy="3.94" r=".32"/>
  <circle class="cls-1" cx="12.19" cy="3.94" r=".32"/>
  <circle class="cls-1" cx="49.41" cy="3.94" r=".32"/>
  <circle class="cls-1" cx="15.92" cy="3.94" r=".32"/>
  <circle class="cls-1" cx="4.76" cy="3.94" r=".32"/>
  <circle class="cls-1" cx="38.25" cy="3.94" r=".32"/>
  <circle class="cls-1" cx="27.09" cy="3.94" r=".32"/>
  <circle class="cls-1" cx="17.78" cy="5.8" r=".38"/>
  <circle class="cls-1" cx="6.62" cy="5.8" r=".38"/>
  <circle class="cls-1" cx="43.82" cy="5.8" r=".38"/>
  <circle class="cls-1" cx="28.95" cy="5.8" r=".38"/>
  <circle class="cls-1" cx="21.49" cy="5.8" r=".38"/>
  <circle class="cls-1" cx="10.33" cy="5.8" r=".38"/>
  <circle class="cls-1" cx="51.28" cy="5.8" r=".38"/>
  <circle class="cls-1" cx="40.11" cy="5.8" r=".38"/>
  <circle class="cls-1" cx="32.66" cy="5.8" r=".38"/>
  <circle class="cls-1" cx="36.39" cy="5.8" r=".38"/>
  <circle class="cls-1" cx="14.06" cy="5.8" r=".38"/>
  <circle class="cls-1" cx="47.55" cy="5.8" r=".38"/>
  <circle class="cls-1" cx="25.22" cy="5.8" r=".38"/>
  <circle class="cls-1" cx="2.89" cy="5.8" r=".38"/>
  <circle class="cls-1" cx="1.03" cy="7.61" r=".43"/>
  <circle class="cls-1" cx="23.36" cy="7.66" r=".43"/>
  <circle class="cls-1" cx="27.08" cy="7.66" r=".43"/>
  <circle class="cls-1" cx="49.41" cy="7.66" r=".43"/>
  <circle class="cls-1" cx="38.24" cy="7.66" r=".43"/>
  <circle class="cls-1" cx="45.69" cy="7.66" r=".43"/>
  <circle class="cls-1" cx="15.91" cy="7.66" r=".43"/>
  <circle class="cls-1" cx="34.53" cy="7.66" r=".43"/>
  <circle class="cls-1" cx="12.2" cy="7.66" r=".43"/>
  <circle class="cls-1" cx="4.75" cy="7.66" r=".43"/>
  <circle class="cls-1" cx="30.8" cy="7.66" r=".42"/>
  <circle class="cls-1" cx="19.64" cy="7.66" r=".42"/>
  <circle class="cls-1" cx="8.47" cy="7.66" r=".42"/>
  <circle class="cls-1" cx="41.97" cy="7.66" r=".42"/>
  <circle class="cls-1" cx="43.83" cy="9.53" r=".47"/>
  <circle class="cls-1" cx="10.34" cy="9.53" r=".47"/>
  <circle class="cls-1" cx="21.5" cy="9.53" r=".47"/>
  <circle class="cls-1" cx="32.67" cy="9.53" r=".47"/>
  <circle class="cls-1" cx="17.78" cy="9.52" r=".47"/>
  <circle class="cls-1" cx="40.11" cy="9.52" r=".47"/>
  <circle class="cls-1" cx="28.94" cy="9.52" r=".47"/>
  <circle class="cls-1" cx="6.61" cy="9.52" r=".47"/>
  <circle class="cls-1" cx="51.27" cy="9.52" r=".47"/>
  <circle class="cls-1" cx="14.06" cy="9.52" r=".48"/>
  <circle class="cls-1" cx="25.22" cy="9.52" r=".48"/>
  <circle class="cls-1" cx="47.55" cy="9.52" r=".48"/>
  <circle class="cls-1" cx="36.38" cy="9.52" r=".48"/>
  <circle class="cls-1" cx="2.89" cy="9.52" r=".48"/>
  <circle class="cls-1" cx="1.03" cy="11.34" r=".51"/>
  <circle class="cls-1" cx="34.53" cy="11.38" r=".52"/>
  <circle class="cls-1" cx="23.37" cy="11.38" r=".52"/>
  <circle class="cls-1" cx="12.2" cy="11.38" r=".52"/>
  <circle class="cls-1" cx="45.69" cy="11.38" r=".52"/>
  <circle class="cls-1" cx="41.97" cy="11.38" r=".52"/>
  <circle class="cls-1" cx="49.41" cy="11.38" r=".52"/>
  <circle class="cls-1" cx="15.91" cy="11.38" r=".52"/>
  <circle class="cls-1" cx="4.75" cy="11.38" r=".52"/>
  <circle class="cls-1" cx="27.08" cy="11.38" r=".52"/>
  <circle class="cls-1" cx="30.8" cy="11.38" r=".52"/>
  <circle class="cls-1" cx="38.24" cy="11.38" r=".52"/>
  <circle class="cls-1" cx="8.47" cy="11.38" r=".52"/>
  <circle class="cls-1" cx="19.64" cy="11.38" r=".52"/>
  <circle class="cls-1" cx="47.55" cy="13.25" r=".55"/>
  <circle class="cls-1" cx="14.05" cy="13.25" r=".55"/>
  <circle class="cls-1" cx="10.34" cy="13.24" r=".55"/>
  <circle class="cls-1" cx="25.22" cy="13.25" r=".55"/>
  <circle class="cls-1" cx="36.38" cy="13.25" r=".55"/>
  <circle class="cls-1" cx="21.5" cy="13.24" r=".55"/>
  <circle class="cls-1" cx="43.83" cy="13.24" r=".55"/>
  <circle class="cls-1" cx="2.89" cy="13.25" r=".55"/>
  <circle class="cls-1" cx="32.66" cy="13.24" r=".55"/>
  <circle class="cls-1" cx="6.61" cy="13.24" r=".55"/>
  <circle class="cls-1" cx="28.94" cy="13.24" r=".55"/>
  <circle class="cls-1" cx="40.11" cy="13.24" r=".55"/>
  <circle class="cls-1" cx="17.78" cy="13.24" r=".55"/>
  <circle class="cls-1" cx="51.27" cy="13.24" r=".55"/>
  <circle class="cls-1" cx="4.75" cy="15.1" r=".59"/>
  <circle class="cls-1" cx="12.19" cy="15.11" r=".59"/>
  <circle class="cls-1" cx="34.52" cy="15.11" r=".59"/>
  <circle class="cls-1" cx="23.36" cy="15.11" r=".59"/>
  <circle class="cls-1" cx="49.41" cy="15.1" r=".59"/>
  <circle class="cls-1" cx="41.97" cy="15.11" r=".59"/>
  <circle class="cls-1" cx="30.8" cy="15.11" r=".59"/>
  <circle class="cls-1" cx="19.64" cy="15.11" r=".59"/>
  <circle class="cls-1" cx="15.92" cy="15.1" r=".59"/>
  <circle class="cls-1" cx="27.08" cy="15.1" r=".59"/>
  <circle class="cls-1" cx="8.47" cy="15.11" r=".59"/>
  <circle class="cls-1" cx="45.69" cy="15.11" r=".59"/>
  <circle class="cls-1" cx="38.25" cy="15.1" r=".59"/>
  <circle class="cls-1" cx="1.03" cy="15.06" r=".59"/>
  <circle class="cls-1" cx="36.39" cy="16.97" r=".62"/>
  <circle class="cls-1" cx="10.34" cy="16.97" r=".62"/>
  <circle class="cls-1" cx="2.89" cy="16.97" r=".62"/>
  <circle class="cls-1" cx="47.55" cy="16.97" r=".62"/>
  <circle class="cls-1" cx="21.5" cy="16.97" r=".62"/>
  <circle class="cls-1" cx="32.66" cy="16.97" r=".62"/>
  <circle class="cls-1" cx="25.22" cy="16.97" r=".62"/>
  <circle class="cls-1" cx="43.83" cy="16.97" r=".62"/>
  <circle class="cls-1" cx="14.06" cy="16.97" r=".62"/>
  <circle class="cls-1" cx="17.78" cy="16.96" r=".62"/>
  <circle class="cls-1" cx="28.94" cy="16.96" r=".62"/>
  <circle class="cls-1" cx="51.27" cy="16.96" r=".62"/>
  <circle class="cls-1" cx="6.61" cy="16.96" r=".62"/>
  <circle class="cls-1" cx="40.11" cy="16.96" r=".62"/>
  <circle class="cls-1" cx="38.25" cy="18.83" r=".65"/>
  <circle class="cls-1" cx="27.08" cy="18.83" r=".65"/>
  <circle class="cls-1" cx="49.41" cy="18.83" r=".65"/>
  <circle class="cls-1" cx="15.92" cy="18.83" r=".65"/>
  <circle class="cls-1" cx="4.75" cy="18.83" r=".65"/>
  <circle class="cls-1" cx="45.69" cy="18.83" r=".65"/>
  <circle class="cls-1" cx="34.52" cy="18.83" r=".65"/>
  <circle class="cls-1" cx="23.36" cy="18.83" r=".65"/>
  <circle class="cls-1" cx="12.19" cy="18.83" r=".65"/>
  <circle class="cls-1" cx="19.64" cy="18.83" r=".65"/>
  <circle class="cls-1" cx="30.8" cy="18.83" r=".65"/>
  <circle class="cls-1" cx="8.47" cy="18.83" r=".65"/>
  <circle class="cls-1" cx="41.97" cy="18.83" r=".65"/>
  <circle class="cls-1" cx="1.03" cy="18.78" r=".65"/>
  <circle class="cls-1" cx="2.89" cy="20.68" r=".68"/>
  <circle class="cls-1" cx="47.55" cy="20.68" r=".68"/>
  <circle class="cls-1" cx="36.38" cy="20.68" r=".68"/>
  <circle class="cls-1" cx="25.22" cy="20.68" r=".68"/>
  <circle class="cls-1" cx="14.05" cy="20.68" r=".68"/>
  <circle class="cls-1" cx="28.95" cy="20.69" r=".68"/>
  <circle class="cls-1" cx="17.78" cy="20.69" r=".68"/>
  <circle class="cls-1" cx="6.62" cy="20.69" r=".68"/>
  <circle class="cls-1" cx="40.11" cy="20.69" r=".68"/>
  <circle class="cls-1" cx="51.27" cy="20.69" r=".68"/>
  <circle class="cls-1" cx="10.33" cy="20.69" r=".69"/>
  <circle class="cls-1" cx="21.5" cy="20.69" r=".69"/>
  <circle class="cls-1" cx="43.83" cy="20.69" r=".69"/>
  <circle class="cls-1" cx="32.66" cy="20.69" r=".69"/>
  <circle class="cls-1" cx="38.25" cy="22.55" r=".71"/>
  <circle class="cls-1" cx="49.41" cy="22.55" r=".71"/>
  <circle class="cls-1" cx="12.2" cy="22.55" r=".71"/>
  <circle class="cls-1" cx="27.08" cy="22.55" r=".71"/>
  <circle class="cls-1" cx="15.92" cy="22.55" r=".71"/>
  <circle class="cls-1" cx="4.75" cy="22.55" r=".71"/>
  <circle class="cls-1" cx="34.53" cy="22.55" r=".71"/>
  <circle class="cls-1" cx="23.36" cy="22.55" r=".71"/>
  <circle class="cls-1" cx="45.69" cy="22.55" r=".71"/>
  <circle class="cls-1" cx="19.64" cy="22.55" r=".71"/>
  <circle class="cls-1" cx="8.47" cy="22.55" r=".71"/>
  <circle class="cls-1" cx="41.97" cy="22.55" r=".71"/>
  <circle class="cls-1" cx="30.8" cy="22.55" r=".71"/>
  <circle class="cls-1" cx="1.03" cy="22.5" r=".71"/>
  <circle class="cls-1" cx="17.78" cy="24.41" r=".74"/>
  <circle class="cls-1" cx="51.27" cy="24.41" r=".74"/>
  <circle class="cls-1" cx="28.94" cy="24.41" r=".74"/>
  <circle class="cls-1" cx="40.11" cy="24.41" r=".74"/>
  <circle class="cls-1" cx="6.61" cy="24.41" r=".74"/>
  <circle class="cls-1" cx="43.83" cy="24.41" r=".74"/>
  <circle class="cls-1" cx="21.5" cy="24.41" r=".74"/>
  <circle class="cls-1" cx="32.66" cy="24.41" r=".74"/>
  <circle class="cls-1" cx="10.33" cy="24.41" r=".74"/>
  <circle class="cls-1" cx="14.06" cy="24.41" r=".74"/>
  <circle class="cls-1" cx="47.55" cy="24.41" r=".74"/>
  <circle class="cls-1" cx="2.89" cy="24.41" r=".74"/>
  <circle class="cls-1" cx="25.22" cy="24.41" r=".74"/>
  <circle class="cls-1" cx="36.39" cy="24.41" r=".74"/>
  <circle class="cls-1" cx="8.48" cy="26.27" r=".77"/>
  <circle class="cls-1" cx="30.8" cy="26.27" r=".77"/>
  <circle class="cls-1" cx="19.64" cy="26.27" r=".77"/>
  <circle class="cls-1" cx="41.97" cy="26.27" r=".77"/>
  <circle class="cls-1" cx="23.36" cy="26.27" r=".77"/>
  <circle class="cls-1" cx="45.69" cy="26.27" r=".77"/>
  <circle class="cls-1" cx="12.19" cy="26.27" r=".77"/>
  <circle class="cls-1" cx="34.52" cy="26.27" r=".77"/>
  <circle class="cls-1" cx="4.75" cy="26.27" r=".77"/>
  <circle class="cls-1" cx="15.92" cy="26.27" r=".77"/>
  <circle class="cls-1" cx="49.41" cy="26.27" r=".77"/>
  <circle class="cls-1" cx="38.25" cy="26.27" r=".77"/>
  <circle class="cls-1" cx="27.08" cy="26.27" r=".77"/>
  <circle class="cls-1" cx="1.03" cy="26.22" r=".77"/>
  <circle class="cls-1" cx="47.55" cy="28.13" r=".79"/>
  <circle class="cls-1" cx="36.39" cy="28.13" r=".79"/>
  <circle class="cls-1" cx="2.89" cy="28.13" r=".79"/>
  <circle class="cls-1" cx="14.06" cy="28.13" r=".79"/>
  <circle class="cls-1" cx="25.22" cy="28.13" r=".79"/>
  <circle class="cls-1" cx="40.11" cy="28.13" r=".79"/>
  <circle class="cls-1" cx="28.94" cy="28.13" r=".79"/>
  <circle class="cls-1" cx="51.27" cy="28.13" r=".79"/>
  <circle class="cls-1" cx="17.78" cy="28.13" r=".79"/>
  <circle class="cls-1" cx="6.61" cy="28.13" r=".79"/>
  <circle class="cls-1" cx="43.83" cy="28.13" r=".79"/>
  <circle class="cls-1" cx="32.66" cy="28.13" r=".79"/>
  <circle class="cls-1" cx="10.33" cy="28.13" r=".79"/>
  <circle class="cls-1" cx="21.5" cy="28.13" r=".79"/>
  <circle class="cls-1" cx="1.03" cy="29.94" r=".81"/>
  <circle class="cls-1" cx="23.36" cy="29.99" r=".82"/>
  <circle class="cls-1" cx="45.69" cy="29.99" r=".82"/>
  <circle class="cls-1" cx="27.08" cy="29.99" r=".82"/>
  <circle class="cls-1" cx="4.75" cy="29.99" r=".82"/>
  <circle class="cls-1" cx="15.92" cy="29.99" r=".82"/>
  <circle class="cls-1" cx="49.41" cy="29.99" r=".82"/>
  <circle class="cls-1" cx="12.2" cy="29.99" r=".82"/>
  <circle class="cls-1" cx="34.53" cy="29.99" r=".82"/>
  <circle class="cls-1" cx="38.25" cy="29.99" r=".82"/>
  <circle class="cls-1" cx="41.97" cy="29.99" r=".82"/>
  <circle class="cls-1" cx="8.47" cy="29.99" r=".82"/>
  <circle class="cls-1" cx="19.64" cy="29.99" r=".82"/>
  <circle class="cls-1" cx="30.8" cy="29.99" r=".82"/>
  <circle class="cls-1" cx="21.5" cy="31.85" r=".84"/>
  <circle class="cls-1" cx="32.66" cy="31.85" r=".84"/>
  <circle class="cls-1" cx="10.34" cy="31.85" r=".84"/>
  <circle class="cls-1" cx="43.83" cy="31.85" r=".84"/>
  <circle class="cls-1" cx="6.61" cy="31.85" r=".84"/>
  <circle class="cls-1" cx="51.27" cy="31.85" r=".84"/>
  <circle class="cls-1" cx="40.11" cy="31.85" r=".84"/>
  <circle class="cls-1" cx="17.78" cy="31.85" r=".84"/>
  <circle class="cls-1" cx="28.94" cy="31.85" r=".84"/>
  <circle class="cls-1" cx="47.55" cy="31.85" r=".84"/>
  <circle class="cls-1" cx="14.06" cy="31.85" r=".84"/>
  <circle class="cls-1" cx="2.89" cy="31.85" r=".84"/>
  <circle class="cls-1" cx="36.39" cy="31.85" r=".84"/>
  <circle class="cls-1" cx="25.22" cy="31.85" r=".84"/>
  <circle class="cls-1" cx="19.64" cy="33.71" r=".86"/>
  <circle class="cls-1" cx="30.8" cy="33.71" r=".86"/>
  <circle class="cls-1" cx="45.68" cy="33.71" r=".86"/>
  <circle class="cls-1" cx="34.52" cy="33.71" r=".86"/>
  <circle class="cls-1" cx="12.19" cy="33.71" r=".86"/>
  <circle class="cls-1" cx="23.35" cy="33.71" r=".86"/>
  <circle class="cls-1" cx="8.47" cy="33.71" r=".86"/>
  <circle class="cls-1" cx="41.97" cy="33.71" r=".86"/>
  <circle class="cls-1" cx="38.25" cy="33.71" r=".86"/>
  <circle class="cls-1" cx="4.76" cy="33.71" r=".86"/>
  <circle class="cls-1" cx="27.09" cy="33.71" r=".86"/>
  <circle class="cls-1" cx="49.41" cy="33.71" r=".86"/>
  <circle class="cls-1" cx="1.03" cy="33.67" r=".86"/>
  <circle class="cls-1" cx="15.92" cy="33.71" r=".86"/>
  <circle class="cls-1" cx="36.39" cy="35.57" r=".89"/>
  <circle class="cls-1" cx="25.22" cy="35.57" r=".89"/>
  <circle class="cls-1" cx="47.55" cy="35.57" r=".89"/>
  <circle class="cls-1" cx="2.89" cy="35.57" r=".89"/>
  <circle class="cls-1" cx="14.06" cy="35.57" r=".89"/>
  <circle class="cls-1" cx="6.61" cy="35.57" r=".89"/>
  <circle class="cls-1" cx="51.27" cy="35.57" r=".89"/>
  <circle class="cls-1" cx="28.94" cy="35.57" r=".89"/>
  <circle class="cls-1" cx="17.78" cy="35.57" r=".89"/>
  <circle class="cls-1" cx="40.1" cy="35.57" r=".89"/>
  <circle class="cls-1" cx="10.33" cy="35.58" r=".89"/>
  <circle class="cls-1" cx="21.5" cy="35.58" r=".89"/>
  <circle class="cls-1" cx="43.83" cy="35.58" r=".89"/>
  <circle class="cls-1" cx="32.66" cy="35.58" r=".89"/>
  <circle class="cls-1" cx="34.53" cy="37.43" r=".91"/>
  <circle class="cls-1" cx="12.2" cy="37.43" r=".91"/>
  <circle class="cls-1" cx="1.03" cy="37.39" r=".91"/>
  <circle class="cls-1" cx="45.69" cy="37.43" r=".91"/>
  <circle class="cls-1" cx="23.36" cy="37.43" r=".91"/>
  <circle class="cls-1" cx="4.75" cy="37.43" r=".91"/>
  <circle class="cls-1" cx="30.8" cy="37.43" r=".91"/>
  <circle class="cls-1" cx="41.97" cy="37.43" r=".91"/>
  <circle class="cls-1" cx="49.41" cy="37.43" r=".91"/>
  <circle class="cls-1" cx="8.47" cy="37.43" r=".91"/>
  <circle class="cls-1" cx="38.24" cy="37.43" r=".91"/>
  <circle class="cls-1" cx="27.08" cy="37.43" r=".91"/>
  <circle class="cls-1" cx="15.91" cy="37.43" r=".91"/>
  <circle class="cls-1" cx="19.64" cy="37.43" r=".91"/>
  <circle class="cls-1" cx="21.5" cy="39.29" r=".93"/>
  <circle class="cls-1" cx="32.67" cy="39.29" r=".93"/>
  <circle class="cls-1" cx="43.83" cy="39.29" r=".93"/>
  <circle class="cls-1" cx="10.34" cy="39.29" r=".93"/>
  <circle class="cls-1" cx="40.1" cy="39.29" r=".93"/>
  <circle class="cls-1" cx="6.61" cy="39.29" r=".93"/>
  <circle class="cls-1" cx="51.27" cy="39.29" r=".93"/>
  <circle class="cls-1" cx="17.77" cy="39.29" r=".93"/>
  <circle class="cls-1" cx="28.94" cy="39.29" r=".93"/>
  <circle class="cls-1" cx="25.22" cy="39.29" r=".93"/>
  <circle class="cls-1" cx="14.06" cy="39.29" r=".93"/>
  <circle class="cls-1" cx="47.55" cy="39.29" r=".93"/>
  <circle class="cls-1" cx="2.89" cy="39.29" r=".93"/>
  <circle class="cls-1" cx="36.39" cy="39.29" r=".93"/>
  <circle class="cls-1" cx="23.36" cy="41.15" r=".95"/>
  <circle class="cls-1" cx="12.19" cy="41.15" r=".95"/>
  <circle class="cls-1" cx="45.69" cy="41.15" r=".95"/>
  <circle class="cls-1" cx="34.52" cy="41.15" r=".95"/>
  <circle class="cls-1" cx="4.75" cy="41.16" r=".95"/>
  <circle class="cls-1" cx="27.08" cy="41.16" r=".95"/>
  <circle class="cls-1" cx="15.92" cy="41.16" r=".95"/>
  <circle class="cls-1" cx="49.41" cy="41.16" r=".95"/>
  <circle class="cls-1" cx="38.25" cy="41.16" r=".95"/>
  <circle class="cls-1" cx="19.64" cy="41.15" r=".95"/>
  <circle class="cls-1" cx="8.47" cy="41.15" r=".95"/>
  <circle class="cls-1" cx="30.8" cy="41.15" r=".95"/>
  <circle class="cls-1" cx="41.97" cy="41.15" r=".95"/>
  <circle class="cls-1" cx="1.03" cy="41.11" r=".95"/>
  <circle class="cls-1" cx="47.55" cy="43.02" r=".97"/>
  <circle class="cls-1" cx="2.89" cy="43.02" r=".97"/>
  <circle class="cls-1" cx="25.22" cy="43.02" r=".97"/>
  <circle class="cls-1" cx="36.39" cy="43.02" r=".97"/>
  <circle class="cls-1" cx="14.06" cy="43.02" r=".97"/>
  <circle class="cls-1" cx="17.78" cy="43.02" r=".97"/>
  <circle class="cls-1" cx="51.27" cy="43.02" r=".97"/>
  <circle class="cls-1" cx="40.11" cy="43.02" r=".97"/>
  <circle class="cls-1" cx="6.61" cy="43.02" r=".97"/>
  <circle class="cls-1" cx="28.94" cy="43.02" r=".97"/>
  <circle class="cls-1" cx="32.66" cy="43.02" r=".97"/>
  <circle class="cls-1" cx="10.33" cy="43.02" r=".97"/>
  <circle class="cls-1" cx="21.5" cy="43.02" r=".97"/>
  <circle class="cls-1" cx="43.83" cy="43.02" r=".97"/>
  <circle class="cls-1" cx="1.03" cy="44.83" r=".99"/>
  <circle class="cls-1" cx="4.75" cy="44.88" r=".99"/>
  <circle class="cls-1" cx="49.41" cy="44.88" r=".99"/>
  <circle class="cls-1" cx="27.08" cy="44.88" r=".99"/>
  <circle class="cls-1" cx="38.25" cy="44.88" r=".99"/>
  <circle class="cls-1" cx="15.92" cy="44.88" r=".99"/>
  <circle class="cls-1" cx="45.69" cy="44.88" r=".99"/>
  <circle class="cls-1" cx="34.52" cy="44.88" r=".99"/>
  <circle class="cls-1" cx="12.19" cy="44.88" r=".99"/>
  <circle class="cls-1" cx="23.36" cy="44.88" r=".99"/>
  <circle class="cls-1" cx="8.47" cy="44.88" r=".99"/>
  <circle class="cls-1" cx="19.64" cy="44.88" r=".99"/>
  <circle class="cls-1" cx="30.8" cy="44.88" r=".99"/>
  <circle class="cls-1" cx="41.97" cy="44.88" r=".99"/>
  <circle class="cls-1" cx="43.83" cy="46.74" r="1.01"/>
  <circle class="cls-1" cx="21.5" cy="46.74" r="1.01"/>
  <circle class="cls-1" cx="32.66" cy="46.74" r="1.01"/>
  <circle class="cls-1" cx="10.34" cy="46.74" r="1.01"/>
  <circle class="cls-1" cx="51.27" cy="46.74" r="1.01"/>
  <circle class="cls-1" cx="28.94" cy="46.74" r="1.01"/>
  <circle class="cls-1" cx="17.78" cy="46.74" r="1.01"/>
  <circle class="cls-1" cx="6.61" cy="46.74" r="1.01"/>
  <circle class="cls-1" cx="40.11" cy="46.74" r="1.01"/>
  <circle class="cls-1" cx="47.55" cy="46.73" r="1.01"/>
  <circle class="cls-1" cx="36.38" cy="46.73" r="1.01"/>
  <circle class="cls-1" cx="2.89" cy="46.73" r="1.01"/>
  <circle class="cls-1" cx="25.22" cy="46.73" r="1.01"/>
  <circle class="cls-1" cx="14.06" cy="46.73" r="1.01"/>
  <circle class="cls-1" cx="19.64" cy="48.6" r="1.03"/>
  <circle class="cls-1" cx="41.97" cy="48.6" r="1.03"/>
  <circle class="cls-1" cx="30.8" cy="48.6" r="1.03"/>
  <circle class="cls-1" cx="8.47" cy="48.6" r="1.03"/>
  <circle class="cls-1" cx="49.41" cy="48.6" r="1.03"/>
  <circle class="cls-1" cx="34.52" cy="48.6" r="1.03"/>
  <circle class="cls-1" cx="45.69" cy="48.6" r="1.03"/>
  <circle class="cls-1" cx="12.19" cy="48.6" r="1.03"/>
  <circle class="cls-1" cx="27.08" cy="48.6" r="1.03"/>
  <circle class="cls-1" cx="4.75" cy="48.6" r="1.03"/>
  <circle class="cls-1" cx="23.36" cy="48.6" r="1.03"/>
  <circle class="cls-1" cx="38.25" cy="48.6" r="1.03"/>
  <circle class="cls-1" cx="15.92" cy="48.6" r="1.03"/>
  <circle class="cls-1" cx="1.03" cy="48.55" r="1.03"/>
  <circle class="cls-1" cx="47.5" cy="50.46" r="1.05"/>
  <circle class="cls-1" cx="14.01" cy="50.46" r="1.05"/>
  <circle class="cls-1" cx="25.17" cy="50.46" r="1.05"/>
  <circle class="cls-1" cx="36.34" cy="50.46" r="1.05"/>
  <circle class="cls-1" cx="2.84" cy="50.46" r="1.05"/>
  <circle class="cls-1" cx="43.78" cy="50.46" r="1.05"/>
  <circle class="cls-1" cx="10.29" cy="50.46" r="1.05"/>
  <circle class="cls-1" cx="21.45" cy="50.46" r="1.05"/>
  <circle class="cls-1" cx="32.61" cy="50.46" r="1.05"/>
  <circle class="cls-1" cx="6.57" cy="50.46" r="1.05"/>
  <circle class="cls-1" cx="28.9" cy="50.46" r="1.05"/>
  <circle class="cls-1" cx="51.23" cy="50.46" r="1.05"/>
  <circle class="cls-1" cx="17.74" cy="50.46" r="1.05"/>
  <circle class="cls-1" cx="40.06" cy="50.46" r="1.05"/>
</svg>