<?xml version="1.0" encoding="UTF-8"?>
<svg id="Layer_1" data-name="Layer 1" xmlns="http://www.w3.org/2000/svg" viewBox="0 0 50.67 53.64">
  <defs>
    <style>
      .cls-1 {
        fill: #7c7b7b;
      }
    </style>
  </defs>
  <g>
    <path class="cls-1" d="M1.1.67l-.65.6-.28-.33L1.15.12h.42v3.52h-.48V.67Z"/>
    <path class="cls-1" d="M5.06,3.62c0,.18-.03.34-.09.49-.06.15-.15.28-.26.38-.11.11-.25.19-.41.25-.16.06-.34.09-.53.09-.23,0-.43-.03-.62-.09-.19-.06-.37-.17-.54-.33l.3-.38c.12.13.24.22.38.29.14.06.29.1.46.1s.3-.02.41-.07c.11-.05.2-.11.26-.19.06-.08.11-.16.14-.26.03-.1.04-.2.04-.3v-.35h-.01c-.09.14-.2.25-.35.32-.15.07-.3.1-.47.1-.17,0-.33-.03-.48-.09-.15-.06-.27-.15-.38-.25-.11-.11-.19-.24-.25-.38-.06-.15-.09-.31-.09-.48s.03-.33.08-.49c.06-.15.14-.28.24-.4.1-.11.23-.2.38-.26.15-.06.31-.09.5-.09.16,0,.31.03.47.1s.27.17.36.29h0v-.34h.45v2.34ZM3.84,1.64c-.12,0-.23.02-.32.06-.1.04-.18.1-.24.17-.07.07-.12.16-.15.26s-.05.21-.05.33c0,.24.07.43.21.57s.33.22.57.22.43-.07.57-.22.21-.34.21-.57c0-.12-.02-.23-.05-.33s-.09-.19-.15-.26-.15-.13-.24-.17c-.1-.04-.2-.06-.32-.06Z"/>
  </g>
  <g>
    <path class="cls-1" d="M12.5.64l-.65.6-.28-.33.98-.81h.42v3.52h-.48V.64Z"/>
    <path class="cls-1" d="M16.46,3.59c0,.18-.03.34-.09.49-.06.15-.15.28-.26.38-.11.11-.25.19-.41.25-.16.06-.34.09-.53.09-.23,0-.43-.03-.62-.09-.19-.06-.37-.17-.54-.33l.3-.38c.12.13.24.22.38.29.14.06.29.1.46.1s.3-.02.41-.07c.11-.05.2-.11.26-.19.06-.08.11-.16.14-.26.03-.1.04-.2.04-.3v-.35h-.01c-.09.14-.2.25-.35.32-.15.07-.3.1-.47.1-.17,0-.33-.03-.48-.09-.15-.06-.27-.15-.38-.25-.11-.11-.19-.24-.25-.38-.06-.15-.09-.31-.09-.48s.03-.33.08-.49c.06-.15.14-.28.24-.4.1-.11.23-.2.38-.26.15-.06.31-.09.5-.09.16,0,.31.03.47.1s.27.17.36.29h0v-.34h.45v2.34ZM15.24,1.61c-.12,0-.23.02-.32.06-.1.04-.18.1-.24.17-.07.07-.12.16-.15.26s-.05.21-.05.33c0,.24.07.43.21.57s.33.22.57.22.43-.07.57-.22.21-.34.21-.57c0-.12-.02-.23-.05-.33s-.09-.19-.15-.26-.15-.13-.24-.17c-.1-.04-.2-.06-.32-.06Z"/>
  </g>
  <g>
    <path class="cls-1" d="M23.9.61l-.65.6-.28-.33.98-.81h.42v3.52h-.48V.61Z"/>
    <path class="cls-1" d="M27.86,3.56c0,.18-.03.34-.09.49-.06.15-.15.28-.26.38-.11.11-.25.19-.41.25-.16.06-.34.09-.53.09-.23,0-.43-.03-.62-.09-.19-.06-.37-.17-.54-.33l.3-.38c.12.13.24.22.38.29.14.06.29.1.46.1s.3-.02.41-.07c.11-.05.2-.11.26-.19.06-.08.11-.16.14-.26.03-.1.04-.2.04-.3v-.35h-.01c-.09.14-.2.25-.35.32-.15.07-.3.1-.47.1-.17,0-.33-.03-.48-.09-.15-.06-.27-.15-.38-.25-.11-.11-.19-.24-.25-.38-.06-.15-.09-.31-.09-.48s.03-.33.08-.49c.06-.15.14-.28.24-.4.1-.11.23-.2.38-.26.15-.06.31-.09.5-.09.16,0,.31.03.47.1s.27.17.36.29h0v-.34h.45v2.34ZM26.64,1.58c-.12,0-.23.02-.32.06-.1.04-.18.1-.24.17-.07.07-.12.16-.15.26s-.05.21-.05.33c0,.24.07.43.21.57s.33.22.57.22.43-.07.57-.22.21-.34.21-.57c0-.12-.02-.23-.05-.33s-.09-.19-.15-.26-.15-.13-.24-.17c-.1-.04-.2-.06-.32-.06Z"/>
  </g>
  <g>
    <path class="cls-1" d="M35.3.58l-.65.6-.28-.33.98-.81h.42v3.52h-.48V.58Z"/>
    <path class="cls-1" d="M39.27,3.53c0,.18-.03.34-.09.49-.06.15-.15.28-.26.38-.11.11-.25.19-.41.25-.16.06-.34.09-.53.09-.23,0-.43-.03-.62-.09-.19-.06-.37-.17-.54-.33l.3-.38c.12.13.24.22.38.29.14.06.29.1.46.1s.3-.02.41-.07c.11-.05.2-.11.26-.19.06-.08.11-.16.14-.26.03-.1.04-.2.04-.3v-.35h-.01c-.09.14-.2.25-.35.32-.15.07-.3.1-.47.1-.17,0-.33-.03-.48-.09-.15-.06-.27-.15-.38-.25-.11-.11-.19-.24-.25-.38-.06-.15-.09-.31-.09-.48s.03-.33.08-.49c.06-.15.14-.28.24-.4.1-.11.23-.2.38-.26.15-.06.31-.09.5-.09.16,0,.31.03.47.1s.27.17.36.29h0v-.34h.45v2.34ZM38.04,1.55c-.12,0-.23.02-.32.06-.1.04-.18.1-.24.17-.07.07-.12.16-.15.26s-.05.21-.05.33c0,.24.07.43.21.57s.33.22.57.22.43-.07.57-.22.21-.34.21-.57c0-.12-.02-.23-.05-.33s-.09-.19-.15-.26-.15-.13-.24-.17c-.1-.04-.2-.06-.32-.06Z"/>
  </g>
  <g>
    <path class="cls-1" d="M46.7.55l-.65.6-.28-.33.98-.81h.42v3.52h-.48V.55Z"/>
    <path class="cls-1" d="M50.67,3.5c0,.18-.03.34-.09.49-.06.15-.15.28-.26.38-.11.11-.25.19-.41.25-.16.06-.34.09-.53.09-.23,0-.43-.03-.62-.09-.19-.06-.37-.17-.54-.33l.3-.38c.12.13.24.22.38.29.14.06.29.1.46.1s.3-.02.41-.07c.11-.05.2-.11.26-.19.06-.08.11-.16.14-.26.03-.1.04-.2.04-.3v-.35h-.01c-.09.14-.2.25-.35.32-.15.07-.3.1-.47.1-.17,0-.33-.03-.48-.09-.15-.06-.27-.15-.38-.25-.11-.11-.19-.24-.25-.38-.06-.15-.09-.31-.09-.48s.03-.33.08-.49c.06-.15.14-.28.24-.4.1-.11.23-.2.38-.26.15-.06.31-.09.5-.09.16,0,.31.03.47.1s.27.17.36.29h0v-.34h.45v2.34ZM49.44,1.52c-.12,0-.23.02-.32.06-.1.04-.18.1-.24.17-.07.07-.12.16-.15.26s-.05.21-.05.33c0,.24.07.43.21.57s.33.22.57.22.43-.07.57-.22.21-.34.21-.57c0-.12-.02-.23-.05-.33s-.09-.19-.15-.26-.15-.13-.24-.17c-.1-.04-.2-.06-.32-.06Z"/>
  </g>
  <g>
    <path class="cls-1" d="M1.07,8.78l-.65.6-.28-.33.98-.81h.42v3.52h-.48v-2.98Z"/>
    <path class="cls-1" d="M5.03,11.74c0,.18-.03.34-.09.49-.06.15-.15.28-.26.38-.11.11-.25.19-.41.25-.16.06-.34.09-.53.09-.23,0-.43-.03-.62-.09-.19-.06-.37-.17-.54-.33l.3-.38c.12.13.24.22.38.29.14.06.29.1.46.1s.3-.02.41-.07c.11-.05.2-.11.26-.19.06-.08.11-.16.14-.26.03-.1.04-.2.04-.3v-.35h-.01c-.09.14-.2.25-.35.32-.15.07-.3.1-.47.1-.17,0-.33-.03-.48-.09-.15-.06-.27-.15-.38-.25-.11-.11-.19-.24-.25-.38-.06-.15-.09-.31-.09-.48s.03-.33.08-.49c.06-.15.14-.28.24-.4.1-.11.23-.2.38-.26.15-.06.31-.09.5-.09.16,0,.31.03.47.1s.27.17.36.29h0v-.34h.45v2.34ZM3.8,9.76c-.12,0-.23.02-.32.06-.1.04-.18.1-.24.17-.07.07-.12.16-.15.26s-.05.21-.05.33c0,.24.07.43.21.57s.33.22.57.22.43-.07.57-.22.21-.34.21-.57c0-.12-.02-.23-.05-.33s-.09-.19-.15-.26-.15-.13-.24-.17c-.1-.04-.2-.06-.32-.06Z"/>
  </g>
  <g>
    <path class="cls-1" d="M12.47,8.75l-.65.6-.28-.33.98-.81h.42v3.52h-.48v-2.98Z"/>
    <path class="cls-1" d="M16.43,11.71c0,.18-.03.34-.09.49-.06.15-.15.28-.26.38-.11.11-.25.19-.41.25-.16.06-.34.09-.53.09-.23,0-.43-.03-.62-.09-.19-.06-.37-.17-.54-.33l.3-.38c.12.13.24.22.38.29.14.06.29.1.46.1s.3-.02.41-.07c.11-.05.2-.11.26-.19.06-.08.11-.16.14-.26.03-.1.04-.2.04-.3v-.35h-.01c-.09.14-.2.25-.35.32-.15.07-.3.1-.47.1-.17,0-.33-.03-.48-.09-.15-.06-.27-.15-.38-.25-.11-.11-.19-.24-.25-.38-.06-.15-.09-.31-.09-.48s.03-.33.08-.49c.06-.15.14-.28.24-.4.1-.11.23-.2.38-.26.15-.06.31-.09.5-.09.16,0,.31.03.47.1s.27.17.36.29h0v-.34h.45v2.34ZM15.2,9.73c-.12,0-.23.02-.32.06-.1.04-.18.1-.24.17-.07.07-.12.16-.15.26s-.05.21-.05.33c0,.24.07.43.21.57.14.14.33.22.57.22s.43-.07.57-.22.21-.34.21-.57c0-.12-.02-.23-.05-.33s-.09-.19-.15-.26-.15-.13-.24-.17c-.1-.04-.2-.06-.32-.06Z"/>
  </g>
  <g>
    <path class="cls-1" d="M23.87,8.72l-.65.6-.28-.33.98-.81h.42v3.52h-.48v-2.98Z"/>
    <path class="cls-1" d="M27.83,11.68c0,.18-.03.34-.09.49-.06.15-.15.28-.26.38-.11.11-.25.19-.41.25-.16.06-.34.09-.53.09-.23,0-.43-.03-.62-.09-.19-.06-.37-.17-.54-.33l.3-.38c.12.13.24.22.38.29.14.06.29.1.46.1s.3-.02.41-.07c.11-.05.2-.11.26-.19.06-.08.11-.16.14-.26.03-.1.04-.2.04-.3v-.35h-.01c-.09.14-.2.25-.35.32-.15.07-.3.1-.47.1-.17,0-.33-.03-.48-.09-.15-.06-.27-.15-.38-.25-.11-.11-.19-.24-.25-.38-.06-.15-.09-.31-.09-.48s.03-.33.08-.49c.06-.15.14-.28.24-.4.1-.11.23-.2.38-.26.15-.06.31-.09.5-.09.16,0,.31.03.47.1s.27.17.36.29h0v-.34h.45v2.34ZM26.61,9.7c-.12,0-.23.02-.32.06-.1.04-.18.1-.24.17-.07.07-.12.16-.15.26s-.05.21-.05.33c0,.24.07.43.21.57s.33.22.57.22.43-.07.57-.22.21-.34.21-.57c0-.12-.02-.23-.05-.33s-.09-.19-.15-.26-.15-.13-.24-.17c-.1-.04-.2-.06-.32-.06Z"/>
  </g>
  <g>
    <path class="cls-1" d="M35.27,8.69l-.65.6-.28-.33.98-.81h.42v3.52h-.48v-2.98Z"/>
    <path class="cls-1" d="M39.23,11.65c0,.18-.03.34-.09.49-.06.15-.15.28-.26.38-.11.11-.25.19-.41.25-.16.06-.34.09-.53.09-.23,0-.43-.03-.62-.09-.19-.06-.37-.17-.54-.33l.3-.38c.12.13.24.22.38.29.14.06.29.1.46.1s.3-.02.41-.07c.11-.05.2-.11.26-.19.06-.08.11-.16.14-.26.03-.1.04-.2.04-.3v-.35h-.01c-.09.14-.2.25-.35.32-.15.07-.3.1-.47.1-.17,0-.33-.03-.48-.09-.15-.06-.27-.15-.38-.25-.11-.11-.19-.24-.25-.38-.06-.15-.09-.31-.09-.48s.03-.33.08-.49c.06-.15.14-.28.24-.4.1-.11.23-.2.38-.26.15-.06.31-.09.5-.09.16,0,.31.03.47.1s.27.17.36.29h0v-.34h.45v2.34ZM38.01,9.67c-.12,0-.23.02-.32.06-.1.04-.18.1-.24.17-.07.07-.12.16-.15.26s-.05.21-.05.33c0,.24.07.43.21.57s.33.22.57.22.43-.07.57-.22.21-.34.21-.57c0-.12-.02-.23-.05-.33s-.09-.19-.15-.26-.15-.13-.24-.17c-.1-.04-.2-.06-.32-.06Z"/>
  </g>
  <g>
    <path class="cls-1" d="M46.67,8.66l-.65.6-.28-.33.98-.81h.42v3.52h-.48v-2.98Z"/>
    <path class="cls-1" d="M50.63,11.62c0,.18-.03.34-.09.49-.06.15-.15.28-.26.38-.11.11-.25.19-.41.25-.16.06-.34.09-.53.09-.23,0-.43-.03-.62-.09-.19-.06-.37-.17-.54-.33l.3-.38c.12.13.24.22.38.29.14.06.29.1.46.1s.3-.02.41-.07c.11-.05.2-.11.26-.19.06-.08.11-.16.14-.26.03-.1.04-.2.04-.3v-.35h-.01c-.09.14-.2.25-.35.32-.15.07-.3.1-.47.1-.17,0-.33-.03-.48-.09-.15-.06-.27-.15-.38-.25-.11-.11-.19-.24-.25-.38-.06-.15-.09-.31-.09-.48s.03-.33.08-.49c.06-.15.14-.28.24-.4.1-.11.23-.2.38-.26.15-.06.31-.09.5-.09.16,0,.31.03.47.1s.27.17.36.29h0v-.34h.45v2.34ZM49.41,9.64c-.12,0-.23.02-.32.06-.1.04-.18.1-.24.17-.07.07-.12.16-.15.26s-.05.21-.05.33c0,.24.07.43.21.57s.33.22.57.22.43-.07.57-.22.21-.34.21-.57c0-.12-.02-.23-.05-.33s-.09-.19-.15-.26-.15-.13-.24-.17c-.1-.04-.2-.06-.32-.06Z"/>
  </g>
  <g>
    <path class="cls-1" d="M1.03,16.9l-.65.6-.28-.33.98-.81h.42v3.52h-.48v-2.98Z"/>
    <path class="cls-1" d="M4.99,19.85c0,.18-.03.34-.09.49-.06.15-.15.28-.26.38-.11.11-.25.19-.41.25-.16.06-.34.09-.53.09-.23,0-.43-.03-.62-.09-.19-.06-.37-.17-.54-.33l.3-.38c.12.13.24.22.38.29.14.06.29.1.46.1s.3-.02.41-.07c.11-.05.2-.11.26-.19.06-.08.11-.16.14-.26.03-.1.04-.2.04-.3v-.35h-.01c-.09.14-.2.25-.35.32-.15.07-.3.1-.47.1-.17,0-.33-.03-.48-.09-.15-.06-.27-.15-.38-.25-.11-.11-.19-.24-.25-.38-.06-.15-.09-.31-.09-.48s.03-.33.08-.49c.06-.15.14-.28.24-.4.1-.11.23-.2.38-.26.15-.06.31-.09.5-.09.16,0,.31.03.47.1s.27.17.36.29h0v-.34h.45v2.34ZM3.77,17.87c-.12,0-.23.02-.32.06-.1.04-.18.1-.24.17-.07.07-.12.16-.15.26s-.05.21-.05.33c0,.24.07.43.21.57s.33.22.57.22.43-.07.57-.22.21-.34.21-.57c0-.12-.02-.23-.05-.33s-.09-.19-.15-.26-.15-.13-.24-.17c-.1-.04-.2-.06-.32-.06Z"/>
  </g>
  <g>
    <path class="cls-1" d="M12.43,16.87l-.65.6-.28-.33.98-.81h.42v3.52h-.48v-2.98Z"/>
    <path class="cls-1" d="M16.39,19.82c0,.18-.03.34-.09.49-.06.15-.15.28-.26.38-.11.11-.25.19-.41.25-.16.06-.34.09-.53.09-.23,0-.43-.03-.62-.09-.19-.06-.37-.17-.54-.33l.3-.38c.12.13.24.22.38.29.14.06.29.1.46.1s.3-.02.41-.07c.11-.05.2-.11.26-.19.06-.08.11-.16.14-.26.03-.1.04-.2.04-.3v-.35h-.01c-.09.14-.2.25-.35.32-.15.07-.3.1-.47.1-.17,0-.33-.03-.48-.09-.15-.06-.27-.15-.38-.25-.11-.11-.19-.24-.25-.38-.06-.15-.09-.31-.09-.48s.03-.33.08-.49c.06-.15.14-.28.24-.4.1-.11.23-.2.38-.26.15-.06.31-.09.5-.09.16,0,.31.03.47.1s.27.17.36.29h0v-.34h.45v2.34ZM15.17,17.84c-.12,0-.23.02-.32.06-.1.04-.18.1-.24.17-.07.07-.12.16-.15.26s-.05.21-.05.33c0,.24.07.43.21.57s.33.22.57.22.43-.07.57-.22.21-.34.21-.57c0-.12-.02-.23-.05-.33s-.09-.19-.15-.26-.15-.13-.24-.17c-.1-.04-.2-.06-.32-.06Z"/>
  </g>
  <g>
    <path class="cls-1" d="M23.83,16.84l-.65.6-.28-.33.98-.81h.42v3.52h-.48v-2.98Z"/>
    <path class="cls-1" d="M27.79,19.79c0,.18-.03.34-.09.49-.06.15-.15.28-.26.38-.11.11-.25.19-.41.25-.16.06-.34.09-.53.09-.23,0-.43-.03-.62-.09-.19-.06-.37-.17-.54-.33l.3-.38c.12.13.24.22.38.29.14.06.29.1.46.1s.3-.02.41-.07c.11-.05.2-.11.26-.19.06-.08.11-.16.14-.26.03-.1.04-.2.04-.3v-.35h-.01c-.09.14-.2.25-.35.32-.15.07-.3.1-.47.1-.17,0-.33-.03-.48-.09-.15-.06-.27-.15-.38-.25-.11-.11-.19-.24-.25-.38-.06-.15-.09-.31-.09-.48s.03-.33.08-.49c.06-.15.14-.28.24-.4.1-.11.23-.2.38-.26.15-.06.31-.09.5-.09.16,0,.31.03.47.1s.27.17.36.29h0v-.34h.45v2.34ZM26.57,17.81c-.12,0-.23.02-.32.06-.1.04-.18.1-.24.17-.07.07-.12.16-.15.26s-.05.21-.05.33c0,.24.07.43.21.57s.33.22.57.22.43-.07.57-.22.21-.34.21-.57c0-.12-.02-.23-.05-.33s-.09-.19-.15-.26-.15-.13-.24-.17c-.1-.04-.2-.06-.32-.06Z"/>
  </g>
  <g>
    <path class="cls-1" d="M35.23,16.81l-.65.6-.28-.33.98-.81h.42v3.52h-.48v-2.98Z"/>
    <path class="cls-1" d="M39.2,19.76c0,.18-.03.34-.09.49-.06.15-.15.28-.26.38-.11.11-.25.19-.41.25-.16.06-.34.09-.53.09-.23,0-.43-.03-.62-.09-.19-.06-.37-.17-.54-.33l.3-.38c.12.13.24.22.38.29.14.06.29.1.46.1s.3-.02.41-.07c.11-.05.2-.11.26-.19.06-.08.11-.16.14-.26.03-.1.04-.2.04-.3v-.35h-.01c-.09.14-.2.25-.35.32-.15.07-.3.1-.47.1-.17,0-.33-.03-.48-.09-.15-.06-.27-.15-.38-.25-.11-.11-.19-.24-.25-.38-.06-.15-.09-.31-.09-.48s.03-.33.08-.49c.06-.15.14-.28.24-.4.1-.11.23-.2.38-.26.15-.06.31-.09.5-.09.16,0,.31.03.47.1s.27.17.36.29h0v-.34h.45v2.34ZM37.97,17.78c-.12,0-.23.02-.32.06-.1.04-.18.1-.24.17-.07.07-.12.16-.15.26s-.05.21-.05.33c0,.24.07.43.21.57s.33.22.57.22.43-.07.57-.22.21-.34.21-.57c0-.12-.02-.23-.05-.33s-.09-.19-.15-.26-.15-.13-.24-.17c-.1-.04-.2-.06-.32-.06Z"/>
  </g>
  <g>
    <path class="cls-1" d="M46.64,16.78l-.65.6-.28-.33.98-.81h.42v3.52h-.48v-2.98Z"/>
    <path class="cls-1" d="M50.6,19.73c0,.18-.03.34-.09.49-.06.15-.15.28-.26.38-.11.11-.25.19-.41.25-.16.06-.34.09-.53.09-.23,0-.43-.03-.62-.09-.19-.06-.37-.17-.54-.33l.3-.38c.12.13.24.22.38.29.14.06.29.1.46.1s.3-.02.41-.07c.11-.05.2-.11.26-.19.06-.08.11-.16.14-.26.03-.1.04-.2.04-.3v-.35h-.01c-.09.14-.2.25-.35.32-.15.07-.3.1-.47.1-.17,0-.33-.03-.48-.09-.15-.06-.27-.15-.38-.25-.11-.11-.19-.24-.25-.38-.06-.15-.09-.31-.09-.48s.03-.33.08-.49c.06-.15.14-.28.24-.4.1-.11.23-.2.38-.26.15-.06.31-.09.5-.09.16,0,.31.03.47.1s.27.17.36.29h0v-.34h.45v2.34ZM49.37,17.75c-.12,0-.23.02-.32.06-.1.04-.18.1-.24.17-.07.07-.12.16-.15.26s-.05.21-.05.33c0,.24.07.43.21.57s.33.22.57.22.43-.07.57-.22.21-.34.21-.57c0-.12-.02-.23-.05-.33s-.09-.19-.15-.26-.15-.13-.24-.17c-.1-.04-.2-.06-.32-.06Z"/>
  </g>
  <g>
    <path class="cls-1" d="M1,25.01l-.65.6-.28-.33.98-.81h.42v3.52h-.48v-2.98Z"/>
    <path class="cls-1" d="M4.96,27.97c0,.18-.03.34-.09.49-.06.15-.15.28-.26.38-.11.11-.25.19-.41.25-.16.06-.34.09-.53.09-.23,0-.43-.03-.62-.09-.19-.06-.37-.17-.54-.33l.3-.38c.12.13.24.22.38.29.14.06.29.1.46.1s.3-.02.41-.07c.11-.05.2-.11.26-.19.06-.08.11-.16.14-.26.03-.1.04-.2.04-.3v-.35h-.01c-.09.14-.2.25-.35.32-.15.07-.3.1-.47.1-.17,0-.33-.03-.48-.09-.15-.06-.27-.15-.38-.25-.11-.11-.19-.24-.25-.38-.06-.15-.09-.31-.09-.48s.03-.33.08-.49c.06-.15.14-.28.24-.4.1-.11.23-.2.38-.26.15-.06.31-.09.5-.09.16,0,.31.03.47.1s.27.17.36.29h0v-.34h.45v2.34ZM3.73,25.99c-.12,0-.23.02-.32.06-.1.04-.18.1-.24.17-.07.07-.12.16-.15.26s-.05.21-.05.33c0,.24.07.43.21.57s.33.22.57.22.43-.07.57-.22.21-.34.21-.57c0-.12-.02-.23-.05-.33s-.09-.19-.15-.26-.15-.13-.24-.17c-.1-.04-.2-.06-.32-.06Z"/>
  </g>
  <g>
    <path class="cls-1" d="M12.4,24.98l-.65.6-.28-.33.98-.81h.42v3.52h-.48v-2.98Z"/>
    <path class="cls-1" d="M16.36,27.94c0,.18-.03.34-.09.49-.06.15-.15.28-.26.38-.11.11-.25.19-.41.25-.16.06-.34.09-.53.09-.23,0-.43-.03-.62-.09-.19-.06-.37-.17-.54-.33l.3-.38c.12.13.24.22.38.29.14.06.29.1.46.1s.3-.02.41-.07c.11-.05.2-.11.26-.19.06-.08.11-.16.14-.26.03-.1.04-.2.04-.3v-.35h-.01c-.09.14-.2.25-.35.32-.15.07-.3.1-.47.1-.17,0-.33-.03-.48-.09-.15-.06-.27-.15-.38-.25-.11-.11-.19-.24-.25-.38-.06-.15-.09-.31-.09-.48s.03-.33.08-.49c.06-.15.14-.28.24-.4.1-.11.23-.2.38-.26.15-.06.31-.09.5-.09.16,0,.31.03.47.1s.27.17.36.29h0v-.34h.45v2.34ZM15.13,25.96c-.12,0-.23.02-.32.06-.1.04-.18.1-.24.17-.07.07-.12.16-.15.26s-.05.21-.05.33c0,.24.07.43.21.57s.33.22.57.22.43-.07.57-.22.21-.34.21-.57c0-.12-.02-.23-.05-.33s-.09-.19-.15-.26-.15-.13-.24-.17c-.1-.04-.2-.06-.32-.06Z"/>
  </g>
  <g>
    <path class="cls-1" d="M23.8,24.95l-.65.6-.28-.33.98-.81h.42v3.52h-.48v-2.98Z"/>
    <path class="cls-1" d="M27.76,27.91c0,.18-.03.34-.09.49-.06.15-.15.28-.26.38-.11.11-.25.19-.41.25-.16.06-.34.09-.53.09-.23,0-.43-.03-.62-.09-.19-.06-.37-.17-.54-.33l.3-.38c.12.13.24.22.38.29.14.06.29.1.46.1s.3-.02.41-.07c.11-.05.2-.11.26-.19.06-.08.11-.16.14-.26.03-.1.04-.2.04-.3v-.35h-.01c-.09.14-.2.25-.35.32-.15.07-.3.1-.47.1-.17,0-.33-.03-.48-.09-.15-.06-.27-.15-.38-.25-.11-.11-.19-.24-.25-.38-.06-.15-.09-.31-.09-.48s.03-.33.08-.49c.06-.15.14-.28.24-.4.1-.11.23-.2.38-.26.15-.06.31-.09.5-.09.16,0,.31.03.47.1s.27.17.36.29h0v-.34h.45v2.34ZM26.54,25.93c-.12,0-.23.02-.32.06-.1.04-.18.1-.24.17-.07.07-.12.16-.15.26s-.05.21-.05.33c0,.24.07.43.21.57s.33.22.57.22.43-.07.57-.22.21-.34.21-.57c0-.12-.02-.23-.05-.33s-.09-.19-.15-.26-.15-.13-.24-.17c-.1-.04-.2-.06-.32-.06Z"/>
  </g>
  <g>
    <path class="cls-1" d="M35.2,24.92l-.65.6-.28-.33.98-.81h.42v3.52h-.48v-2.98Z"/>
    <path class="cls-1" d="M39.16,27.88c0,.18-.03.34-.09.49-.06.15-.15.28-.26.38-.11.11-.25.19-.41.25-.16.06-.34.09-.53.09-.23,0-.43-.03-.62-.09-.19-.06-.37-.17-.54-.33l.3-.38c.12.13.24.22.38.29.14.06.29.1.46.1s.3-.02.41-.07c.11-.05.2-.11.26-.19.06-.08.11-.16.14-.26.03-.1.04-.2.04-.3v-.35h-.01c-.09.14-.2.25-.35.32-.15.07-.3.1-.47.1-.17,0-.33-.03-.48-.09-.15-.06-.27-.15-.38-.25-.11-.11-.19-.24-.25-.38-.06-.15-.09-.31-.09-.48s.03-.33.08-.49c.06-.15.14-.28.24-.4.1-.11.23-.2.38-.26.15-.06.31-.09.5-.09.16,0,.31.03.47.1s.27.17.36.29h0v-.34h.45v2.34ZM37.94,25.9c-.12,0-.23.02-.32.06-.1.04-.18.1-.24.17-.07.07-.12.16-.15.26s-.05.21-.05.33c0,.24.07.43.21.57s.33.22.57.22.43-.07.57-.22.21-.34.21-.57c0-.12-.02-.23-.05-.33s-.09-.19-.15-.26-.15-.13-.24-.17c-.1-.04-.2-.06-.32-.06Z"/>
  </g>
  <g>
    <path class="cls-1" d="M46.6,24.89l-.65.6-.28-.33.98-.81h.42v3.52h-.48v-2.98Z"/>
    <path class="cls-1" d="M50.56,27.85c0,.18-.03.34-.09.49-.06.15-.15.28-.26.38-.11.11-.25.19-.41.25-.16.06-.34.09-.53.09-.23,0-.43-.03-.62-.09-.19-.06-.37-.17-.54-.33l.3-.38c.12.13.24.22.38.29.14.06.29.1.46.1s.3-.02.41-.07c.11-.05.2-.11.26-.19.06-.08.11-.16.14-.26.03-.1.04-.2.04-.3v-.35h-.01c-.09.14-.2.25-.35.32-.15.07-.3.1-.47.1-.17,0-.33-.03-.48-.09-.15-.06-.27-.15-.38-.25-.11-.11-.19-.24-.25-.38-.06-.15-.09-.31-.09-.48s.03-.33.08-.49c.06-.15.14-.28.24-.4.1-.11.23-.2.38-.26.15-.06.31-.09.5-.09.16,0,.31.03.47.1s.27.17.36.29h0v-.34h.45v2.34ZM49.34,25.87c-.12,0-.23.02-.32.06-.1.04-.18.1-.24.17-.07.07-.12.16-.15.26s-.05.21-.05.33c0,.24.07.43.21.57s.33.22.57.22.43-.07.57-.22.21-.34.21-.57c0-.12-.02-.23-.05-.33s-.09-.19-.15-.26-.15-.13-.24-.17c-.1-.04-.2-.06-.32-.06Z"/>
  </g>
  <g>
    <path class="cls-1" d="M.96,33.13l-.65.6-.28-.33.98-.81h.42v3.52h-.48v-2.98Z"/>
    <path class="cls-1" d="M4.92,36.08c0,.18-.03.34-.09.49-.06.15-.15.28-.26.38-.11.11-.25.19-.41.25-.16.06-.34.09-.53.09-.23,0-.43-.03-.62-.09-.19-.06-.37-.17-.54-.33l.3-.38c.12.13.24.22.38.29.14.06.29.1.46.1s.3-.02.41-.07c.11-.05.2-.11.26-.19.06-.08.11-.16.14-.26.03-.1.04-.2.04-.3v-.35h-.01c-.09.14-.2.25-.35.32-.15.07-.3.1-.47.1-.17,0-.33-.03-.48-.09-.15-.06-.27-.15-.38-.25-.11-.11-.19-.24-.25-.38-.06-.15-.09-.31-.09-.48s.03-.33.08-.49c.06-.15.14-.28.24-.4.1-.11.23-.2.38-.26.15-.06.31-.09.5-.09.16,0,.31.03.47.1s.27.17.36.29h0v-.34h.45v2.34ZM3.7,34.1c-.12,0-.23.02-.32.06-.1.04-.18.1-.24.17-.07.07-.12.16-.15.26s-.05.21-.05.33c0,.24.07.43.21.57s.33.22.57.22.43-.07.57-.22.21-.34.21-.57c0-.12-.02-.23-.05-.33s-.09-.19-.15-.26-.15-.13-.24-.17c-.1-.04-.2-.06-.32-.06Z"/>
  </g>
  <g>
    <path class="cls-1" d="M12.36,33.1l-.65.6-.28-.33.98-.81h.42v3.52h-.48v-2.98Z"/>
    <path class="cls-1" d="M16.32,36.05c0,.18-.03.34-.09.49-.06.15-.15.28-.26.38-.11.11-.25.19-.41.25-.16.06-.34.09-.53.09-.23,0-.43-.03-.62-.09-.19-.06-.37-.17-.54-.33l.3-.38c.12.13.24.22.38.29.14.06.29.1.46.1s.3-.02.41-.07c.11-.05.2-.11.26-.19.06-.08.11-.16.14-.26.03-.1.04-.2.04-.3v-.35h-.01c-.09.14-.2.25-.35.32-.15.07-.3.1-.47.1-.17,0-.33-.03-.48-.09-.15-.06-.27-.15-.38-.25-.11-.11-.19-.24-.25-.38-.06-.15-.09-.31-.09-.48s.03-.33.08-.49c.06-.15.14-.28.24-.4.1-.11.23-.2.38-.26.15-.06.31-.09.5-.09.16,0,.31.03.47.1.15.07.27.17.36.29h0v-.34h.45v2.34ZM15.1,34.07c-.12,0-.23.02-.32.06-.1.04-.18.1-.24.17-.07.07-.12.16-.15.26s-.05.21-.05.33c0,.24.07.43.21.57.14.14.33.22.57.22s.43-.07.57-.22.21-.34.21-.57c0-.12-.02-.23-.05-.33s-.09-.19-.15-.26-.15-.13-.24-.17c-.1-.04-.2-.06-.32-.06Z"/>
  </g>
  <g>
    <path class="cls-1" d="M23.76,33.07l-.65.6-.28-.33.98-.81h.42v3.52h-.48v-2.98Z"/>
    <path class="cls-1" d="M27.72,36.02c0,.18-.03.34-.09.49-.06.15-.15.28-.26.38-.11.11-.25.19-.41.25-.16.06-.34.09-.53.09-.23,0-.43-.03-.62-.09-.19-.06-.37-.17-.54-.33l.3-.38c.12.13.24.22.38.29.14.06.29.1.46.1s.3-.02.41-.07c.11-.05.2-.11.26-.19.06-.08.11-.16.14-.26.03-.1.04-.2.04-.3v-.35h-.01c-.09.14-.2.25-.35.32-.15.07-.3.1-.47.1-.17,0-.33-.03-.48-.09-.15-.06-.27-.15-.38-.25-.11-.11-.19-.24-.25-.38-.06-.15-.09-.31-.09-.48s.03-.33.08-.49c.06-.15.14-.28.24-.4.1-.11.23-.2.38-.26.15-.06.31-.09.5-.09.16,0,.31.03.47.1s.27.17.36.29h0v-.34h.45v2.34ZM26.5,34.04c-.12,0-.23.02-.32.06-.1.04-.18.1-.24.17-.07.07-.12.16-.15.26s-.05.21-.05.33c0,.24.07.43.21.57s.33.22.57.22.43-.07.57-.22.21-.34.21-.57c0-.12-.02-.23-.05-.33s-.09-.19-.15-.26-.15-.13-.24-.17c-.1-.04-.2-.06-.32-.06Z"/>
  </g>
  <g>
    <path class="cls-1" d="M35.16,33.04l-.65.6-.28-.33.98-.81h.42v3.52h-.48v-2.98Z"/>
    <path class="cls-1" d="M39.13,35.99c0,.18-.03.34-.09.49-.06.15-.15.28-.26.38-.11.11-.25.19-.41.25-.16.06-.34.09-.53.09-.23,0-.43-.03-.62-.09-.19-.06-.37-.17-.54-.33l.3-.38c.12.13.24.22.38.29.14.06.29.1.46.1s.3-.02.41-.07c.11-.05.2-.11.26-.19.06-.08.11-.16.14-.26.03-.1.04-.2.04-.3v-.35h-.01c-.09.14-.2.25-.35.32-.15.07-.3.1-.47.1-.17,0-.33-.03-.48-.09-.15-.06-.27-.15-.38-.25-.11-.11-.19-.24-.25-.38-.06-.15-.09-.31-.09-.48s.03-.33.08-.49c.06-.15.14-.28.24-.4.1-.11.23-.2.38-.26.15-.06.31-.09.5-.09.16,0,.31.03.47.1s.27.17.36.29h0v-.34h.45v2.34ZM37.9,34.01c-.12,0-.23.02-.32.06-.1.04-.18.1-.24.17-.07.07-.12.16-.15.26s-.05.21-.05.33c0,.24.07.43.21.57s.33.22.57.22.43-.07.57-.22.21-.34.21-.57c0-.12-.02-.23-.05-.33s-.09-.19-.15-.26-.15-.13-.24-.17c-.1-.04-.2-.06-.32-.06Z"/>
  </g>
  <g>
    <path class="cls-1" d="M46.57,33.01l-.65.6-.28-.33.98-.81h.42v3.52h-.48v-2.98Z"/>
    <path class="cls-1" d="M50.53,35.96c0,.18-.03.34-.09.49-.06.15-.15.28-.26.38-.11.11-.25.19-.41.25-.16.06-.34.09-.53.09-.23,0-.43-.03-.62-.09-.19-.06-.37-.17-.54-.33l.3-.38c.12.13.24.22.38.29.14.06.29.1.46.1s.3-.02.41-.07c.11-.05.2-.11.26-.19.06-.08.11-.16.14-.26.03-.1.04-.2.04-.3v-.35h-.01c-.09.14-.2.25-.35.32-.15.07-.3.1-.47.1-.17,0-.33-.03-.48-.09-.15-.06-.27-.15-.38-.25-.11-.11-.19-.24-.25-.38-.06-.15-.09-.31-.09-.48s.03-.33.08-.49c.06-.15.14-.28.24-.4.1-.11.23-.2.38-.26.15-.06.31-.09.5-.09.16,0,.31.03.47.1s.27.17.36.29h0v-.34h.45v2.34ZM49.3,33.98c-.12,0-.23.02-.32.06-.1.04-.18.1-.24.17-.07.07-.12.16-.15.26s-.05.21-.05.33c0,.24.07.43.21.57s.33.22.57.22.43-.07.57-.22.21-.34.21-.57c0-.12-.02-.23-.05-.33s-.09-.19-.15-.26-.15-.13-.24-.17c-.1-.04-.2-.06-.32-.06Z"/>
  </g>
  <g>
    <path class="cls-1" d="M.93,41.24l-.65.6-.28-.33.98-.81h.42v3.52h-.48v-2.98Z"/>
    <path class="cls-1" d="M4.89,44.2c0,.18-.03.34-.09.49-.06.15-.15.28-.26.38-.11.11-.25.19-.41.25-.16.06-.34.09-.53.09-.23,0-.43-.03-.62-.09-.19-.06-.37-.17-.54-.33l.3-.38c.12.13.24.22.38.29.14.06.29.1.46.1s.3-.02.41-.07c.11-.05.2-.11.26-.19.06-.08.11-.16.14-.26.03-.1.04-.2.04-.3v-.35h-.01c-.09.14-.2.25-.35.32-.15.07-.3.1-.47.1-.17,0-.33-.03-.48-.09-.15-.06-.27-.15-.38-.25-.11-.11-.19-.24-.25-.38-.06-.15-.09-.31-.09-.48s.03-.33.08-.49c.06-.15.14-.28.24-.4.1-.11.23-.2.38-.26.15-.06.31-.09.5-.09.16,0,.31.03.47.1s.27.17.36.29h0v-.34h.45v2.34ZM3.66,42.22c-.12,0-.23.02-.32.06-.1.04-.18.1-.24.17-.07.07-.12.16-.15.26s-.05.21-.05.33c0,.24.07.43.21.57s.33.22.57.22.43-.07.57-.22.21-.34.21-.57c0-.12-.02-.23-.05-.33s-.09-.19-.15-.26-.15-.13-.24-.17c-.1-.04-.2-.06-.32-.06Z"/>
  </g>
  <g>
    <path class="cls-1" d="M12.33,41.21l-.65.6-.28-.33.98-.81h.42v3.52h-.48v-2.98Z"/>
    <path class="cls-1" d="M16.29,44.17c0,.18-.03.34-.09.49-.06.15-.15.28-.26.38-.11.11-.25.19-.41.25-.16.06-.34.09-.53.09-.23,0-.43-.03-.62-.09-.19-.06-.37-.17-.54-.33l.3-.38c.12.13.24.22.38.29.14.06.29.1.46.1s.3-.02.41-.07c.11-.05.2-.11.26-.19.06-.08.11-.16.14-.26.03-.1.04-.2.04-.3v-.35h-.01c-.09.14-.2.25-.35.32-.15.07-.3.1-.47.1-.17,0-.33-.03-.48-.09-.15-.06-.27-.15-.38-.25-.11-.11-.19-.24-.25-.38-.06-.15-.09-.31-.09-.48s.03-.33.08-.49c.06-.15.14-.28.24-.4.1-.11.23-.2.38-.26.15-.06.31-.09.5-.09.16,0,.31.03.47.1s.27.17.36.29h0v-.34h.45v2.34ZM15.06,42.19c-.12,0-.23.02-.32.06-.1.04-.18.1-.24.17-.07.07-.12.16-.15.26s-.05.21-.05.33c0,.24.07.43.21.57s.33.22.57.22.43-.07.57-.22.21-.34.21-.57c0-.12-.02-.23-.05-.33s-.09-.19-.15-.26-.15-.13-.24-.17c-.1-.04-.2-.06-.32-.06Z"/>
  </g>
  <g>
    <path class="cls-1" d="M23.73,41.18l-.65.6-.28-.33.98-.81h.42v3.52h-.48v-2.98Z"/>
    <path class="cls-1" d="M27.69,44.14c0,.18-.03.34-.09.49-.06.15-.15.28-.26.38-.11.11-.25.19-.41.25-.16.06-.34.09-.53.09-.23,0-.43-.03-.62-.09-.19-.06-.37-.17-.54-.33l.3-.38c.12.13.24.22.38.29.14.06.29.1.46.1s.3-.02.41-.07c.11-.05.2-.11.26-.19.06-.08.11-.16.14-.26.03-.1.04-.2.04-.3v-.35h-.01c-.09.14-.2.25-.35.32-.15.07-.3.1-.47.1-.17,0-.33-.03-.48-.09-.15-.06-.27-.15-.38-.25-.11-.11-.19-.24-.25-.38-.06-.15-.09-.31-.09-.48s.03-.33.08-.49c.06-.15.14-.28.24-.4.1-.11.23-.2.38-.26.15-.06.31-.09.5-.09.16,0,.31.03.47.1s.27.17.36.29h0v-.34h.45v2.34ZM26.47,42.16c-.12,0-.23.02-.32.06-.1.04-.18.1-.24.17-.07.07-.12.16-.15.26s-.05.21-.05.33c0,.24.07.43.21.57s.33.22.57.22.43-.07.57-.22.21-.34.21-.57c0-.12-.02-.23-.05-.33s-.09-.19-.15-.26-.15-.13-.24-.17c-.1-.04-.2-.06-.32-.06Z"/>
  </g>
  <g>
    <path class="cls-1" d="M35.13,41.15l-.65.6-.28-.33.98-.81h.42v3.52h-.48v-2.98Z"/>
    <path class="cls-1" d="M39.09,44.11c0,.18-.03.34-.09.49-.06.15-.15.28-.26.38-.11.11-.25.19-.41.25-.16.06-.34.09-.53.09-.23,0-.43-.03-.62-.09-.19-.06-.37-.17-.54-.33l.3-.38c.12.13.24.22.38.29.14.06.29.1.46.1s.3-.02.41-.07c.11-.05.2-.11.26-.19.06-.08.11-.16.14-.26.03-.1.04-.2.04-.3v-.35h-.01c-.09.14-.2.25-.35.32-.15.07-.3.1-.47.1-.17,0-.33-.03-.48-.09-.15-.06-.27-.15-.38-.25-.11-.11-.19-.24-.25-.38-.06-.15-.09-.31-.09-.48s.03-.33.08-.49c.06-.15.14-.28.24-.4.1-.11.23-.2.38-.26.15-.06.31-.09.5-.09.16,0,.31.03.47.1s.27.17.36.29h0v-.34h.45v2.34ZM37.87,42.13c-.12,0-.23.02-.32.06-.1.04-.18.1-.24.17-.07.07-.12.16-.15.26s-.05.21-.05.33c0,.24.07.43.21.57s.33.22.57.22.43-.07.57-.22.21-.34.21-.57c0-.12-.02-.23-.05-.33s-.09-.19-.15-.26-.15-.13-.24-.17c-.1-.04-.2-.06-.32-.06Z"/>
  </g>
  <g>
    <path class="cls-1" d="M46.53,41.12l-.65.6-.28-.33.98-.81h.42v3.52h-.48v-2.98Z"/>
    <path class="cls-1" d="M50.49,44.08c0,.18-.03.34-.09.49-.06.15-.15.28-.26.38-.11.11-.25.19-.41.25-.16.06-.34.09-.53.09-.23,0-.43-.03-.62-.09-.19-.06-.37-.17-.54-.33l.3-.38c.12.13.24.22.38.29.14.06.29.1.46.1s.3-.02.41-.07c.11-.05.2-.11.26-.19.06-.08.11-.16.14-.26.03-.1.04-.2.04-.3v-.35h-.01c-.09.14-.2.25-.35.32-.15.07-.3.1-.47.1-.17,0-.33-.03-.48-.09-.15-.06-.27-.15-.38-.25-.11-.11-.19-.24-.25-.38-.06-.15-.09-.31-.09-.48s.03-.33.08-.49c.06-.15.14-.28.24-.4.1-.11.23-.2.38-.26.15-.06.31-.09.5-.09.16,0,.31.03.47.1s.27.17.36.29h0v-.34h.45v2.34ZM49.27,42.1c-.12,0-.23.02-.32.06-.1.04-.18.1-.24.17-.07.07-.12.16-.15.26s-.05.21-.05.33c0,.24.07.43.21.57s.33.22.57.22.43-.07.57-.22.21-.34.21-.57c0-.12-.02-.23-.05-.33s-.09-.19-.15-.26-.15-.13-.24-.17c-.1-.04-.2-.06-.32-.06Z"/>
  </g>
  <g>
    <path class="cls-1" d="M1.1,49.47l-.65.6-.28-.33.98-.81h.42v3.52h-.48v-2.98Z"/>
    <path class="cls-1" d="M5.06,52.43c0,.18-.03.34-.09.49-.06.15-.15.28-.26.38-.11.11-.25.19-.41.25-.16.06-.34.09-.53.09-.23,0-.43-.03-.62-.09-.19-.06-.37-.17-.54-.33l.3-.38c.12.13.24.22.38.29.14.06.29.1.46.1s.3-.02.41-.07c.11-.05.2-.11.26-.19.06-.08.11-.16.14-.26.03-.1.04-.2.04-.3v-.35h-.01c-.09.14-.2.25-.35.32-.15.07-.3.1-.47.1-.17,0-.33-.03-.48-.09-.15-.06-.27-.15-.38-.25-.11-.11-.19-.24-.25-.38-.06-.15-.09-.31-.09-.48s.03-.33.08-.49c.06-.15.14-.28.24-.4.1-.11.23-.2.38-.26.15-.06.31-.09.5-.09.16,0,.31.03.47.1s.27.17.36.29h0v-.34h.45v2.34ZM3.84,50.45c-.12,0-.23.02-.32.06-.1.04-.18.1-.24.17-.07.07-.12.16-.15.26s-.05.21-.05.33c0,.24.07.43.21.57.14.14.33.22.57.22s.43-.07.57-.22c.14-.14.21-.34.21-.57,0-.12-.02-.23-.05-.33s-.09-.19-.15-.26-.15-.13-.24-.17c-.1-.04-.2-.06-.32-.06Z"/>
  </g>
  <g>
    <path class="cls-1" d="M12.5,49.44l-.65.6-.28-.33.98-.81h.42v3.52h-.48v-2.98Z"/>
    <path class="cls-1" d="M16.46,52.4c0,.18-.03.34-.09.49-.06.15-.15.28-.26.38-.11.11-.25.19-.41.25-.16.06-.34.09-.53.09-.23,0-.43-.03-.62-.09-.19-.06-.37-.17-.54-.33l.3-.38c.12.13.24.22.38.29.14.06.29.1.46.1s.3-.02.41-.07c.11-.05.2-.11.26-.19.06-.08.11-.16.14-.26.03-.1.04-.2.04-.3v-.35h-.01c-.09.14-.2.25-.35.32-.15.07-.3.1-.47.1-.17,0-.33-.03-.48-.09-.15-.06-.27-.15-.38-.25-.11-.11-.19-.24-.25-.38-.06-.15-.09-.31-.09-.48s.03-.33.08-.49c.06-.15.14-.28.24-.4.1-.11.23-.2.38-.26.15-.06.31-.09.5-.09.16,0,.31.03.47.1s.27.17.36.29h0v-.34h.45v2.34ZM15.24,50.42c-.12,0-.23.02-.32.06-.1.04-.18.1-.24.17-.07.07-.12.16-.15.26s-.05.21-.05.33c0,.24.07.43.21.57s.33.22.57.22.43-.07.57-.22.21-.34.21-.57c0-.12-.02-.23-.05-.33s-.09-.19-.15-.26-.15-.13-.24-.17c-.1-.04-.2-.06-.32-.06Z"/>
  </g>
  <g>
    <path class="cls-1" d="M23.9,49.41l-.65.6-.28-.33.98-.81h.42v3.52h-.48v-2.98Z"/>
    <path class="cls-1" d="M27.86,52.37c0,.18-.03.34-.09.49-.06.15-.15.28-.26.38-.11.11-.25.19-.41.25-.16.06-.34.09-.53.09-.23,0-.43-.03-.62-.09-.19-.06-.37-.17-.54-.33l.3-.38c.12.13.24.22.38.29.14.06.29.1.46.1s.3-.02.41-.07c.11-.05.2-.11.26-.19.06-.08.11-.16.14-.26.03-.1.04-.2.04-.3v-.35h-.01c-.09.14-.2.25-.35.32-.15.07-.3.1-.47.1-.17,0-.33-.03-.48-.09-.15-.06-.27-.15-.38-.25-.11-.11-.19-.24-.25-.38-.06-.15-.09-.31-.09-.48s.03-.33.08-.49c.06-.15.14-.28.24-.4.1-.11.23-.2.38-.26.15-.06.31-.09.5-.09.16,0,.31.03.47.1s.27.17.36.29h0v-.34h.45v2.34ZM26.64,50.39c-.12,0-.23.02-.32.06-.1.04-.18.1-.24.17-.07.07-.12.16-.15.26s-.05.21-.05.33c0,.24.07.43.21.57s.33.22.57.22.43-.07.57-.22.21-.34.21-.57c0-.12-.02-.23-.05-.33s-.09-.19-.15-.26-.15-.13-.24-.17c-.1-.04-.2-.06-.32-.06Z"/>
  </g>
  <g>
    <path class="cls-1" d="M35.3,49.38l-.65.6-.28-.33.98-.81h.42v3.52h-.48v-2.98Z"/>
    <path class="cls-1" d="M39.27,52.34c0,.18-.03.34-.09.49-.06.15-.15.28-.26.38-.11.11-.25.19-.41.25-.16.06-.34.09-.53.09-.23,0-.43-.03-.62-.09-.19-.06-.37-.17-.54-.33l.3-.38c.12.13.24.22.38.29.14.06.29.1.46.1s.3-.02.41-.07c.11-.05.2-.11.26-.19.06-.08.11-.16.14-.26.03-.1.04-.2.04-.3v-.35h-.01c-.09.14-.2.25-.35.32-.15.07-.3.1-.47.1-.17,0-.33-.03-.48-.09-.15-.06-.27-.15-.38-.25-.11-.11-.19-.24-.25-.38-.06-.15-.09-.31-.09-.48s.03-.33.08-.49c.06-.15.14-.28.24-.4.1-.11.23-.2.38-.26.15-.06.31-.09.5-.09.16,0,.31.03.47.1s.27.17.36.29h0v-.34h.45v2.34ZM38.04,50.36c-.12,0-.23.02-.32.06-.1.04-.18.1-.24.17-.07.07-.12.16-.15.26s-.05.21-.05.33c0,.24.07.43.21.57.14.14.33.22.57.22s.43-.07.57-.22c.14-.14.21-.34.21-.57,0-.12-.02-.23-.05-.33s-.09-.19-.15-.26-.15-.13-.24-.17c-.1-.04-.2-.06-.32-.06Z"/>
  </g>
  <g>
    <path class="cls-1" d="M46.7,49.35l-.65.6-.28-.33.98-.81h.42v3.52h-.48v-2.98Z"/>
    <path class="cls-1" d="M50.67,52.31c0,.18-.03.34-.09.49-.06.15-.15.28-.26.38-.11.11-.25.19-.41.25-.16.06-.34.09-.53.09-.23,0-.43-.03-.62-.09-.19-.06-.37-.17-.54-.33l.3-.38c.12.13.24.22.38.29.14.06.29.1.46.1s.3-.02.41-.07c.11-.05.2-.11.26-.19.06-.08.11-.16.14-.26.03-.1.04-.2.04-.3v-.35h-.01c-.09.14-.2.25-.35.32-.15.07-.3.1-.47.1-.17,0-.33-.03-.48-.09-.15-.06-.27-.15-.38-.25-.11-.11-.19-.24-.25-.38-.06-.15-.09-.31-.09-.48s.03-.33.08-.49c.06-.15.14-.28.24-.4.1-.11.23-.2.38-.26.15-.06.31-.09.5-.09.16,0,.31.03.47.1s.27.17.36.29h0v-.34h.45v2.34ZM49.44,50.33c-.12,0-.23.02-.32.06-.1.04-.18.1-.24.17-.07.07-.12.16-.15.26s-.05.21-.05.33c0,.24.07.43.21.57s.33.22.57.22.43-.07.57-.22.21-.34.21-.57c0-.12-.02-.23-.05-.33s-.09-.19-.15-.26-.15-.13-.24-.17c-.1-.04-.2-.06-.32-.06Z"/>
  </g>
</svg>