<?xml version="1.0" encoding="UTF-8"?>
<svg id="Layer_1" data-name="Layer 1" xmlns="http://www.w3.org/2000/svg" viewBox="0 0 257.6 27.36">
  <path d="M131.58.06l.56,26.19h-5.98s.08-5.83.08-5.83h-9.73s-.07.02-.1.05l-4.07,5.78h-5.79S124.76,1.3,124.76,1.3c.57-.78,1.48-1.25,2.45-1.25h4.36ZM119.45,16.12h6.79s.09-9.61.09-9.61l-6.87,9.61Z"/>
  <path d="M239.09,7.64c-.15-.55-.41-1.03-.77-1.44s-.83-.74-1.39-.97c-.56-.23-1.2-.35-1.91-.35-1.29,0-2.48.25-3.55.75-1.08.5-2.05,1.17-2.9,2.01-.86.84-1.6,1.8-2.24,2.87-.63,1.07-1.15,2.18-1.56,3.32s-.63,2.16-.74,3.2c-.11,1.04-.03,1.97.24,2.8.27.83.76,1.49,1.49,1.99.72.5,1.73.75,3.02.75,1.75,0,3.31-.54,4.68-1.61,1.19-.93,2.17-2.12,2.96-3.57.23-.41.67-.67,1.14-.67h4.76c-.72,1.63-1.62,3.1-2.69,4.42-1.07,1.31-2.27,2.44-3.6,3.36-1.33.93-2.74,1.63-4.26,2.12-1.51.49-3.07.73-4.68.73-2,0-3.67-.35-5.02-1.04-1.35-.69-2.36-1.65-3.03-2.87-.67-1.22-1-2.65-1.01-4.29,0-1.64.33-3.42,1-5.32.69-1.95,1.62-3.76,2.79-5.43,1.17-1.67,2.53-3.12,4.06-4.37,1.54-1.24,3.22-2.22,5.07-2.92,1.85-.71,3.77-1.06,5.76-1.06,1.44,0,2.72.21,3.86.62,1.13.42,2.06,1.02,2.8,1.81.73.79,1.22,1.77,1.47,2.94.25,1.17.19,2.51-.18,4.02h-5.55c.13-.66.13-1.26-.02-1.81Z"/>
  <polygon points="208.58 26.2 213.78 26.2 219.06 11 213.87 11 208.58 26.2"/>
  <path d="M216.81,2.58l-1.45,4.18h5.18s1.57-4.52,1.57-4.52h-4.8c-.22,0-.42.14-.49.35Z"/>
  <path d="M188.85,19.92c-.29,0-.57.08-.8.25-.34.25-.73.49-1.16.73-1.29.72-2.66,1.08-4.09,1.08-2.01,0-3.36-.52-4.07-1.56-.71-1.04-.7-2.71.01-5.02h18.46c.16,0,.3-.1.36-.24.49-1.2.85-2.37,1.1-3.51.02-.08.04-.16.05-.23.12-.6.22-1.2.28-1.79.08-.81.08-1.59.02-2.33,0-.05,0-.09-.01-.14-.09-.87-.27-1.69-.56-2.45-.55-1.44-1.49-2.59-2.83-3.44C194.27.43,192.5,0,190.29,0c-1.97,0-3.9.35-5.77,1.05-1.87.7-3.61,1.67-5.21,2.89-1.6,1.22-3.02,2.67-4.24,4.34-1.23,1.67-2.18,3.48-2.86,5.42-.71,2.01-1.05,3.85-1.02,5.52.03,1.67.4,3.11,1.11,4.32.71,1.2,1.77,2.13,3.18,2.79,1.41.65,3.13.98,5.18.98,2.94,0,5.69-.67,8.24-2.01,2.18-1.14,4.2-2.94,6.05-5.39h-6.11ZM181.26,9.18c.41-.64.94-1.24,1.59-1.81.65-.57,1.42-1.05,2.31-1.43.89-.38,1.9-.58,3.04-.58,1.74,0,2.87.47,3.39,1.4.52.94.63,2.31.33,4.12h-11.59c.21-.5.52-1.07.93-1.71Z"/>
  <path d="M34.39,19.97c-.29,0-.57.08-.8.25-.34.25-.73.49-1.16.73-1.29.72-2.66,1.08-4.09,1.08-2.01,0-3.36-.52-4.07-1.56-.71-1.04-.7-2.71.01-5.02h18.46c.16,0,.3-.1.36-.24.49-1.2.85-2.37,1.1-3.51.02-.08.04-.16.05-.23.12-.6.22-1.2.28-1.79.08-.81.08-1.59.02-2.33,0-.05,0-.09-.01-.14-.09-.87-.27-1.69-.56-2.45-.55-1.44-1.49-2.59-2.83-3.44-1.34-.85-3.11-1.28-5.32-1.28-1.97,0-3.9.35-5.77,1.05-1.87.7-3.61,1.67-5.21,2.89-1.6,1.22-3.02,2.67-4.24,4.34-1.23,1.67-2.18,3.48-2.86,5.42-.71,2.01-1.05,3.85-1.02,5.52.03,1.67.4,3.11,1.11,4.32.71,1.2,1.77,2.13,3.18,2.79,1.41.65,3.13.98,5.18.98,2.94,0,5.69-.67,8.24-2.01,2.18-1.14,4.2-2.94,6.05-5.39h-6.11ZM26.8,9.24c.41-.64.94-1.24,1.59-1.81.65-.57,1.42-1.05,2.31-1.43.89-.38,1.9-.58,3.04-.58,1.74,0,2.87.47,3.39,1.4.52.94.63,2.31.33,4.12h-11.59c.21-.5.52-1.07.93-1.71Z"/>
  <path d="M209.35,11h4.53s1.48-4.25,1.48-4.25h-4.55S213.1.06,213.1.06h-5.12c-.22,0-.42.14-.5.35l-2.05,5.99c-.07.21-.27.35-.5.35h-5.2s.05.47.05.47c0,.03.01.14.01.14.07.78.06,1.59-.02,2.4-.02.21-.05.42-.08.63-.05.32.2.6.52.6h3.49s.15,0,.15,0l-3.89,11.33c-.7,1.98.56,3.91,2.65,3.91h1.26s3.53,0,3.53,0c.22,0,.42-.14.49-.35l1.2-3.41c.12-.34-.13-.7-.49-.7h-2.26c-.44,0-.56-.41-.42-.83l3.42-9.96Z"/>
  <path d="M140.94.45l-2.05,5.97c-.07.21-.27.35-.5.35h-5.89s.09,4.25.09,4.25h4.8s-.09,0-.09,0l-3.72,10.79-.14.41c-.69,1.98.77,4.05,2.87,4.05h1.26s4.91,0,4.91,0l1.57-4.45h-4c-.44,0-.75-.44-.6-.85l3.42-9.93h4.84s1.48-4.25,1.48-4.25h-4.86S146.61.06,146.61.06h-5.13c-.25,0-.47.16-.55.39Z"/>
  <path d="M161.78,26.25h5.35S176.11.06,176.11.06h-4.94c-.25,0-.47.16-.55.39l-8.85,25.8Z"/>
  <path d="M76.13,11.4h3.38s1.43-4.14,1.43-4.14h-3.39s2.42-7.04,2.42-7.04h-4.99c-.24,0-.46.15-.54.39l-2.16,6.27c-.08.23-.3.39-.54.39h-2.64c-.18,1.2-1.07,4.14-1.07,4.14h2.7s-3.65,10.65-3.65,10.65c-.74,2.12.69,4.19,2.94,4.19h.8s3.58,0,3.58,0l1.5-4.33h-2.67c-.43,0-.56-.4-.42-.8l3.33-9.69Z"/>
  <path d="M97.49,26.26L106.42.22h-5.34c-.25,0-.47.15-.55.39l-3.46,10.09h-11.33S89.33.22,89.33.22h-4.76c-.25,0-.47.16-.55.39l-8.85,25.64h5.22s3.44-10.03,3.44-10.03h11.33s-3.43,10.03-3.43,10.03h5.75Z"/>
  <path d="M23.57.12H2.4c-.25,0-.47.16-.55.39L0,5.89h7.51S.53,26.25.53,26.25h7.42S14.93,5.89,14.93,5.89h6.65S23.57.12,23.57.12Z"/>
  <circle cx="254.1" cy="4.05" r="3.5"/>
  <polygon points="143.57 24.9 143.26 25.82 144.07 25.82 143.57 24.9"/>
  <path d="M165.58,8.88c-.28-.67-.81-1.2-1.57-1.58-.76-.38-1.84-.57-3.24-.57-1.1,0-2.27.25-3.5.75-.63.26-1.48.88-2.19,1.42-.21.16-.49-.05-.41-.29L157.61.06h-4.81c-.33,0-.63.21-.74.53l-8.69,25.33c-.06.17.07.35.25.35h4.81c.11,0,.21-.07.25-.18l3.86-11.21v-.03c.51-1.06,1.04-2.16,1.66-2.73.93-.85,2.1-1.27,3.53-1.27,1.25,0,1.99.39,2.21,1.16.22.77.07,1.94-.47,3.51l-3.28,9.52h0l-.42,1.22h.38s.03,0,.03,0h1.85s2.78,0,2.78,0c.11,0,.21-.07.25-.18l3.97-11.52c.41-1.18.67-2.25.79-3.22.13-.97.05-1.79-.24-2.46Z"/>
  <path d="M66.07,1.65c-.99-.49-2.39-.74-4.2-.74-1.43,0-2.94.33-4.53.98-.86.35-2.03,1.23-2.97,1.96-.23.18-.54-.05-.45-.32l1.13-3.3h-5.1c-.24,0-.46.15-.54.38l-9.18,25.64h5.92s5.08-14.81,5.08-14.81c.65-1.37,1.33-2.82,2.14-3.55,1.2-1.1,2.72-1.64,4.57-1.64,1.62,0,2.57.5,2.86,1.5.29,1,.09,2.52-.61,4.55l-4.79,13.9h6.76s5.21-15.14,5.21-15.14c.52-1.52.87-2.91,1.03-4.17.16-1.25.06-2.32-.31-3.19-.37-.87-1.04-1.56-2.03-2.05Z"/>
</svg>