<?xml version="1.0" encoding="UTF-8"?>
<svg id="Layer_1" xmlns="http://www.w3.org/2000/svg" version="1.1" viewBox="140 266 562 63">
  <defs>
    <style>
      .st0 {
        fill: #0d8040;
      }

      .st1 {
        fill: #010101;
      }

      .st2 {
        fill: none;
        stroke: #0d8040;
        stroke-linecap: round;
        stroke-linejoin: round;
        stroke-width: .71px;
      }
    </style>
  </defs>
  <g id="LINE">
    <line class="st1" x1="307.26" y1="326.6" x2="319.62" y2="326.6"/>
  </g>
  <g id="LINE1" data-name="LINE">
    <path class="st1" d="M192.35,269.99h-45.15c-.97,0-1.84.61-2.16,1.52l-3.93,10.98h17l-15.79,44.11h16.07s15.79-44.11,15.79-44.11h13.7l4.48-12.51Z"/>
  </g>
  <g id="LINE2" data-name="LINE">
    <path class="st1" d="M319.62,326.6l8.31-23.22h20.04l-8.31,23.22h12.36l20.25-56.58h-10.74c-.97,0-1.84.61-2.16,1.52l-7.64,21.34c-.33.91-1.19,1.52-2.16,1.52h-18.42l8.73-24.39h-10.74c-.97,0-1.84.61-2.16,1.52l-19.7,55.05"/>
  </g>
  <g id="SPLINE">
    <path class="st1" d="M293.21,326.6h11.71c1.07-2.99,2.14-5.98,3.21-8.96h-7.16c2.77-7.74,5.54-15.48,8.31-23.22h7.16c1.07-2.99,2.14-5.98,3.21-8.96h-7.16c1.84-5.14,3.68-10.29,5.52-15.43h-10.06c-.97,0-1.84.61-2.16,1.52l-.19.54c-1.41,3.95-2.83,7.89-4.24,11.84-.33.91-1.19,1.52-2.16,1.52h-7.57s-1.45,0-1.45,0c.04,1.62-.1,3.26-.4,4.89-.26,1.38-.63,2.74-1.1,4.07h8.94c-3.04,8.49-6.08,16.98-9.12,25.47-.56,1.57-.34,3.22.62,4.58s2.44,2.13,4.11,2.13Z"/>
  </g>
  <g id="SPLINE1" data-name="SPLINE">
    <path class="st1" d="M701.72,274.57c0-4.43-3.14-7.57-7.57-7.57s-7.57,3.14-7.57,7.57,3.14,7.57,7.57,7.57,7.57-3.14,7.57-7.57Z"/>
  </g>
  <g id="SPLINE2" data-name="SPLINE">
    <path class="st1" d="M595,326.6h-9.84c-.79,0-1.58-.14-2.32-.4-3.59-1.28-5.45-5.23-4.17-8.82,2.38-6.64,4.76-13.29,7.13-19.93l2.02-5.65h-9.02c.01-.08.02-.16.03-.24.02-.13.03-.27.05-.4,0-.07.01-.13.02-.2s.01-.14.02-.2c0-.02,0-.05,0-.07s0-.05,0-.07c0-.05,0-.09.01-.14s0-.09.01-.14,0-.09.01-.14c0-.09.01-.19.02-.28s.01-.19.02-.28c0-.05,0-.09,0-.14s0-.09,0-.14c0-.09,0-.18.01-.27s0-.18.01-.27,0-.18,0-.27c0-.18,0-.36,0-.54s0-.36,0-.54c0-.7-.04-1.39-.1-2.09,0,0,0-.02,0-.03,0,0,0-.02,0-.02,0-.02,0-.05,0-.07,0-.03,0-.06,0-.09,0-.02,0-.04,0-.05,0,0,0-.02,0-.03,0,0,0-.01,0-.02,0-.02,0-.05,0-.07-.04-.43-.1-.87-.16-1.3-.01-.09-.03-.17-.04-.26-.01-.06-.02-.12-.02-.19,0-.63.51-1.15,1.15-1.15,3.27,0,6.54,0,9.81,0,.97,0,1.84-.61,2.16-1.52,1.08-3.01,2.15-6.01,3.23-9.02.33-.91,1.19-1.52,2.16-1.52h11.48c-1.44,4.02-2.88,8.04-4.32,12.07h8.63c-1.13,3.24-2.25,6.47-3.38,9.71-2.91,0-5.81,0-8.72,0-2.57,7.19-5.14,14.37-7.72,21.56-.43,1.2.19,2.51,1.39,2.94.25.09.51.13.77.13h3.27c-1.21,3.39-2.43,6.78-3.64,10.17Z"/>
  </g>
  <path class="st1" d="M238.67,285.55c0-.1-.01-.2-.02-.3-.18-1.86-.57-3.6-1.19-5.21-1.16-3.06-3.16-5.5-6.01-7.31-2.85-1.81-6.62-2.72-11.31-2.72-4.2,0-8.29.75-12.26,2.24-3.98,1.49-7.67,3.54-11.07,6.14-3.41,2.6-6.41,5.67-9.02,9.23-2.61,3.55-4.64,7.4-6.09,11.52-1.5,4.26-2.23,8.18-2.17,11.73.06,3.56.85,6.62,2.37,9.18,1.51,2.56,3.77,4.53,6.76,5.92,3,1.39,6.66,2.08,11.01,2.08,6.26,0,12.09-1.42,17.51-4.27,4.13-2.17,7.99-5.45,11.57-9.82h-14.4c-.4,0-.8.11-1.14.3-.1.06-.21.12-.32.18-2.74,1.53-5.65,2.29-8.7,2.29-4.27,0-7.15-1.1-8.65-3.31-1.5-2.21-1.49-5.76.27-11.47h39.88c.98-2.45,1.71-4.84,2.23-7.17.04-.16.08-.33.12-.5.27-1.28.47-2.55.59-3.8.17-1.73.17-3.38.04-4.94ZM223.78,291.83h-24.85c.26-.46.55-.93.87-1.42.91-1.42,2.08-2.75,3.53-4.03,1.45-1.26,3.16-2.33,5.13-3.18,1.97-.85,4.22-1.28,6.74-1.28,3.86,0,6.37,1.05,7.54,3.13.92,1.65,1.27,3.91,1.03,6.79Z"/>
  <g id="LINE3" data-name="LINE">
    <line class="st0" x1="198.93" y1="291.83" x2="223.85" y2="291.83"/>
  </g>
  <g id="SPLINE3" data-name="SPLINE">
    <path class="st1" d="M262.74,270.03h-11.17c-.97,0-1.84.61-2.16,1.52l-15.8,44.14-3.91,10.92h12.79l3.91-10.92,8.25-23.05c2.13-5.94,7.83-10.14,13.77-10.14,5.75-.17,7.93,4.03,5.25,10.14l-8.25,23.05-3.91,10.92h12.55l3.91-10.92,8.25-23.05c4.49-12.55-1.21-21.43-13.76-21.43-3.47,0-7.42,1.36-11.64,4.2l1.93-5.38Z"/>
  </g>
  <path class="st1" d="M576.81,285.55c0-.1-.01-.2-.02-.3-.18-1.86-.57-3.6-1.19-5.21-1.16-3.06-3.16-5.5-6.01-7.31-2.85-1.81-6.62-2.72-11.31-2.72-4.2,0-8.29.75-12.26,2.24-3.98,1.49-7.67,3.54-11.07,6.14-3.41,2.6-6.41,5.67-9.02,9.23-2.61,3.55-4.64,7.4-6.09,11.52-1.5,4.26-2.23,8.18-2.17,11.73.06,3.56.85,6.62,2.37,9.18,1.51,2.56,3.77,4.53,6.76,5.92,3,1.39,6.66,2.08,11.01,2.08,6.26,0,12.09-1.42,17.51-4.27,4.13-2.17,7.99-5.45,11.57-9.82h-14.4c-.4,0-.8.11-1.14.3-.1.06-.21.12-.32.18-2.74,1.53-5.65,2.29-8.7,2.29-4.27,0-7.15-1.1-8.65-3.31-1.5-2.21-1.49-5.76.27-11.47h39.88c.98-2.45,1.71-4.84,2.23-7.17.04-.16.08-.33.12-.5.27-1.28.47-2.55.59-3.8.17-1.73.17-3.38.04-4.94ZM561.99,291.83h-24.92c.26-.46.55-.93.87-1.42.91-1.42,2.09-2.75,3.54-4.03,1.45-1.26,3.17-2.33,5.15-3.18,1.98-.85,4.23-1.28,6.76-1.28,3.87,0,6.39,1.05,7.56,3.13.92,1.65,1.27,3.91,1.04,6.79Z"/>
  <g id="POLYLINE">
    <path class="st1" d="M469.35,270.03h11.17l-5.83,16.3c4.22-2.83,8.17-4.2,11.64-4.2,12.55,0,18.25,8.88,13.76,21.43l-8.25,23.05h-12.55l8.25-23.05c2.68-6.11.51-10.32-5.25-10.14-5.94,0-11.64,4.2-13.77,10.14l-8.25,23.05h-12.79s19.52-54.54,19.52-54.54l.18-.51c.33-.91,1.19-1.52,2.16-1.52Z"/>
  </g>
  <g id="ARC">
    <path class="st1" d="M618.86,270.03c-.98,0-1.85.62-2.17,1.54"/>
  </g>
  <g id="POLYLINE1" data-name="POLYLINE">
    <polyline class="st1" points="616.69 271.57 616.17 273.06 613.7 280.15 613.02 282.09 626.02 282.09 626.64 280.36 628.83 274.24 630.33 270.03 618.86 270.03"/>
  </g>
  <g id="LINE4" data-name="LINE">
    <path class="st1" d="M507.76,326.6l18.71-52.27,1.54-4.31h-11.97c-.97,0-1.84.61-2.16,1.52,0,0-19.7,55.05-19.7,55.05h13.58Z"/>
  </g>
  <g id="SPLINE4" data-name="SPLINE">
    <path class="st1" d="M665.22,286.15c-.32-1.16-.86-2.19-1.64-3.07s-1.76-1.57-2.96-2.06c-1.2-.49-2.55-.74-4.05-.74-2.75,0-5.26.54-7.55,1.59-2.29,1.06-4.35,2.49-6.16,4.27-1.82,1.79-3.41,3.82-4.75,6.1-1.35,2.28-2.45,4.63-3.31,7.07-.82,2.33-1.35,4.59-1.58,6.79-.23,2.21-.06,4.18.51,5.94.57,1.76,1.62,3.17,3.16,4.23,1.54,1.06,3.68,1.59,6.43,1.59,3.73,0,7.04-1.14,9.94-3.42,2.52-1.98,4.62-4.51,6.3-7.59.48-.88,1.42-1.42,2.42-1.42h10.11c-1.53,3.47-3.44,6.6-5.72,9.4-2.28,2.79-4.83,5.18-7.64,7.14-2.82,1.97-5.83,3.47-9.04,4.51-3.21,1.04-6.53,1.55-9.95,1.55-4.25,0-7.8-.74-10.67-2.22-2.87-1.47-5.02-3.5-6.43-6.09-1.42-2.59-2.13-5.63-2.14-9.13-.01-3.49.7-7.26,2.12-11.3,1.46-4.14,3.44-7.99,5.93-11.53,2.49-3.55,5.37-6.64,8.63-9.28,3.26-2.64,6.85-4.71,10.77-6.21,3.92-1.5,8-2.26,12.25-2.26,3.06,0,5.78.44,8.19,1.32,2.41.88,4.39,2.17,5.94,3.85,1.56,1.68,2.6,3.77,3.12,6.25.52,2.48.4,5.33-.37,8.54h-11.8c.28-1.4.27-2.67-.04-3.84Z"/>
  </g>
  <g id="SPLINE5" data-name="SPLINE">
    <path class="st2" d="M609.64,291.8s0,0,0,0"/>
  </g>
  <g id="SPLINE6" data-name="SPLINE">
    <line class="st2" x1="609.64" y1="291.8" x2="609.64" y2="291.8"/>
  </g>
  <g id="SPLINE7" data-name="SPLINE">
    <path class="st2" d="M609.64,291.8s0,0,0,0"/>
  </g>
  <g id="SPLINE8" data-name="SPLINE">
    <line class="st2" x1="609.64" y1="291.8" x2="609.64" y2="291.8"/>
  </g>
  <g id="SPLINE9" data-name="SPLINE">
    <path class="st2" d="M609.64,291.8s0,0,0,0"/>
  </g>
  <g id="SPLINE10" data-name="SPLINE">
    <path class="st2" d="M609.64,291.8s0,0,0,0"/>
  </g>
  <g id="SPLINE11" data-name="SPLINE">
    <path class="st2" d="M609.64,291.8s0,0,0,0"/>
  </g>
  <g id="SPLINE12" data-name="SPLINE">
    <line class="st2" x1="609.64" y1="291.8" x2="609.64" y2="291.8"/>
  </g>
  <g id="SPLINE13" data-name="SPLINE">
    <path class="st2" d="M609.64,291.8s0,0,0,0"/>
  </g>
  <g id="SPLINE14" data-name="SPLINE">
    <line class="st2" x1="609.64" y1="291.8" x2="609.64" y2="291.8"/>
  </g>
  <g id="LINE5" data-name="LINE">
    <line class="st2" x1="609.64" y1="291.8" x2="609.64" y2="291.8"/>
  </g>
  <g id="LINE6" data-name="LINE">
    <line class="st2" x1="609.64" y1="291.8" x2="609.64" y2="291.8"/>
  </g>
  <g id="LINE7" data-name="LINE">
    <line class="st2" x1="609.64" y1="291.8" x2="609.64" y2="291.8"/>
  </g>
  <g id="LINE8" data-name="LINE">
    <line class="st2" x1="609.64" y1="291.8" x2="609.64" y2="291.8"/>
  </g>
  <g id="POLYLINE2" data-name="POLYLINE">
    <polygon class="st1" points="609.64 291.8 622.54 291.8 610.09 326.6 597.19 326.6 609.64 291.8"/>
  </g>
  <g>
    <path class="st1" d="M420.9,320.05l-1.07-50.02h-8.23c-2.94,0-5.69,1.4-7.43,3.77l-4.26,5.83-34.33,46.98h12.55l8.69-12.15c.22-.3.56-.48.94-.48h20.49l-.15,11.47c0,.63.5,1.16,1.13,1.16,0,0,.01,0,.02,0h11.78l-.14-6.56ZM408.29,302.4c-.01,1.26-1.04,2.28-2.3,2.28h-12.42l12.77-17.86c.22-.3.57-.48.95-.48.63,0,1.14.53,1.14,1.16l-.14,14.9Z"/>
    <g id="POLYLINE3" data-name="POLYLINE">
      <path class="st1" d="M449.79,281.65l4.16-11.62h-11.17c-.97,0-1.84.61-2.16,1.52l-3.24,9.05c-.33.91-1.19,1.52-2.16,1.52h-11.69c-.63,0-1.15.51-1.15,1.15,0,0,0,.02,0,.02l.18,8.53h10.81s-9.14,25.55-9.14,25.55c-1.28,3.59.58,7.54,4.17,8.82.75.27,1.53.4,2.32.4h14.38l4.52-12.63h-8.12c-.26,0-.53-.05-.77-.13-1.2-.43-1.82-1.74-1.39-2.94l6.82-19.06h11.39l3.47-9.7h-11.39"/>
    </g>
  </g>
</svg>
